<svg xmlns="http://www.w3.org/2000/svg" version="1.1" xmlns:xlink="http://www.w3.org/1999/xlink" xmlns:svgjs="http://svgjs.dev/svgjs" width="1440" height="560" preserveAspectRatio="none" viewBox="0 0 1440 560"><g mask="url(&quot;#SvgjsMask1034&quot;)" fill="none"><rect width="1440" height="560" x="0" y="0" fill="rgba(0, 0, 0, 1)"></rect><g mask="url(&quot;#SvgjsMask1035&quot;)"><path d="M-12.5 287.5L12.5 287.5L37.5 287.5L62.5 287.5L87.5 287.5L112.5 287.5L137.5 287.5L162.5 287.5L187.5 287.5L212.5 287.5L237.5 287.5" stroke="rgba(240, 121, 0, 1)" stroke-width="4.17"></path><path d="M231.25 287.5 a6.25 6.25 0 1 0 12.5 0 a6.25 6.25 0 1 0 -12.5 0z" fill="rgba(240, 121, 0, 1)"></path><path d="M412.5 287.5L437.5 262.5L462.5 262.5L487.5 262.5M287.5 287.5L312.5 262.5L337.5 262.5L362.5 262.5L387.5 262.5M487.5 287.5L512.5 312.5L537.5 312.5M237.5 262.5L262.5 262.5L287.5 262.5M-12.5 262.5L12.5 262.5L37.5 262.5L62.5 262.5L87.5 262.5L112.5 262.5L137.5 262.5L162.5 262.5L187.5 262.5L212.5 262.5L237.5 262.5L262.5 287.5L287.5 287.5L312.5 287.5L337.5 287.5L362.5 287.5L387.5 287.5L412.5 287.5L437.5 287.5L462.5 287.5L487.5 287.5L512.5 287.5" stroke="rgba(211, 81, 0, 1)" stroke-width="4.17"></path><path d="M506.25 287.5 a6.25 6.25 0 1 0 12.5 0 a6.25 6.25 0 1 0 -12.5 0zM481.25 262.5 a6.25 6.25 0 1 0 12.5 0 a6.25 6.25 0 1 0 -12.5 0zM381.25 262.5 a6.25 6.25 0 1 0 12.5 0 a6.25 6.25 0 1 0 -12.5 0zM531.25 312.5 a6.25 6.25 0 1 0 12.5 0 a6.25 6.25 0 1 0 -12.5 0zM281.25 262.5 a6.25 6.25 0 1 0 12.5 0 a6.25 6.25 0 1 0 -12.5 0z" fill="rgba(211, 81, 0, 1)"></path><path d="M587.5 337.5L612.5 337.5L637.5 337.5L662.5 337.5M512.5 337.5L537.5 362.5L562.5 362.5M462.5 312.5L487.5 312.5M562.5 337.5L587.5 312.5L612.5 312.5L637.5 312.5M212.5 312.5L237.5 337.5L262.5 337.5L287.5 337.5L312.5 337.5L337.5 337.5M487.5 337.5L512.5 362.5L537.5 387.5L562.5 387.5L587.5 387.5L612.5 387.5M-12.5 312.5L12.5 312.5L37.5 312.5L62.5 312.5L87.5 312.5L112.5 312.5L137.5 312.5L162.5 312.5L187.5 312.5L212.5 312.5L237.5 312.5L262.5 312.5L287.5 312.5L312.5 312.5L337.5 312.5L362.5 312.5L387.5 312.5L412.5 312.5L437.5 312.5L462.5 312.5L487.5 337.5L512.5 337.5L537.5 337.5L562.5 337.5L587.5 337.5L612.5 362.5L637.5 362.5" stroke="rgba(240, 121, 0, 1)" stroke-width="4.17"></path><path d="M631.25 362.5 a6.25 6.25 0 1 0 12.5 0 a6.25 6.25 0 1 0 -12.5 0zM656.25 337.5 a6.25 6.25 0 1 0 12.5 0 a6.25 6.25 0 1 0 -12.5 0zM556.25 362.5 a6.25 6.25 0 1 0 12.5 0 a6.25 6.25 0 1 0 -12.5 0zM481.25 312.5 a6.25 6.25 0 1 0 12.5 0 a6.25 6.25 0 1 0 -12.5 0zM631.25 312.5 a6.25 6.25 0 1 0 12.5 0 a6.25 6.25 0 1 0 -12.5 0zM331.25 337.5 a6.25 6.25 0 1 0 12.5 0 a6.25 6.25 0 1 0 -12.5 0zM606.25 387.5 a6.25 6.25 0 1 0 12.5 0 a6.25 6.25 0 1 0 -12.5 0z" fill="rgba(240, 121, 0, 1)"></path><path d="M312.5 237.5L337.5 212.5M437.5 237.5L462.5 237.5L487.5 237.5M512.5 212.5L537.5 237.5L562.5 262.5L587.5 262.5L612.5 262.5L637.5 262.5L662.5 262.5M287.5 237.5L312.5 212.5M412.5 237.5L437.5 212.5M-12.5 237.5L12.5 237.5L37.5 237.5L62.5 237.5L87.5 237.5L112.5 237.5L137.5 237.5L162.5 237.5L187.5 237.5L212.5 237.5L237.5 237.5L262.5 237.5L287.5 237.5L312.5 237.5L337.5 237.5L362.5 237.5L387.5 237.5L412.5 237.5L437.5 237.5L462.5 212.5L487.5 212.5L512.5 212.5L537.5 212.5" stroke="rgba(211, 81, 0, 1)" stroke-width="4.17"></path><path d="M531.25 212.5 a6.25 6.25 0 1 0 12.5 0 a6.25 6.25 0 1 0 -12.5 0zM331.25 212.5 a6.25 6.25 0 1 0 12.5 0 a6.25 6.25 0 1 0 -12.5 0zM481.25 237.5 a6.25 6.25 0 1 0 12.5 0 a6.25 6.25 0 1 0 -12.5 0zM656.25 262.5 a6.25 6.25 0 1 0 12.5 0 a6.25 6.25 0 1 0 -12.5 0zM306.25 212.5 a6.25 6.25 0 1 0 12.5 0 a6.25 6.25 0 1 0 -12.5 0zM431.25 212.5 a6.25 6.25 0 1 0 12.5 0 a6.25 6.25 0 1 0 -12.5 0z" fill="rgba(211, 81, 0, 1)"></path><path d="M-12.5 337.5L12.5 337.5L37.5 337.5L62.5 337.5L87.5 337.5" stroke="rgba(211, 81, 0, 1)" stroke-width="4.17"></path><path d="M81.25 337.5 a6.25 6.25 0 1 0 12.5 0 a6.25 6.25 0 1 0 -12.5 0z" fill="rgba(211, 81, 0, 1)"></path><path d="M-12.5 212.5L12.5 212.5L37.5 212.5L62.5 212.5L87.5 212.5L112.5 212.5L137.5 212.5L162.5 212.5L187.5 212.5" stroke="rgba(240, 121, 0, 1)" stroke-width="4.17"></path><path d="M181.25 212.5 a6.25 6.25 0 1 0 12.5 0 a6.25 6.25 0 1 0 -12.5 0z" fill="rgba(240, 121, 0, 1)"></path><path d="M162.5 362.5L187.5 337.5M287.5 362.5L312.5 387.5L337.5 387.5L362.5 387.5L387.5 387.5M137.5 362.5L162.5 337.5M362.5 362.5L387.5 337.5L412.5 337.5L437.5 337.5L462.5 337.5M-12.5 362.5L12.5 362.5L37.5 362.5L62.5 362.5L87.5 362.5L112.5 362.5L137.5 362.5L162.5 362.5L187.5 362.5L212.5 362.5L237.5 362.5L262.5 362.5L287.5 362.5L312.5 362.5L337.5 362.5L362.5 362.5L387.5 362.5" stroke="rgba(211, 81, 0, 1)" stroke-width="4.17"></path><path d="M381.25 362.5 a6.25 6.25 0 1 0 12.5 0 a6.25 6.25 0 1 0 -12.5 0zM181.25 337.5 a6.25 6.25 0 1 0 12.5 0 a6.25 6.25 0 1 0 -12.5 0zM381.25 387.5 a6.25 6.25 0 1 0 12.5 0 a6.25 6.25 0 1 0 -12.5 0zM156.25 337.5 a6.25 6.25 0 1 0 12.5 0 a6.25 6.25 0 1 0 -12.5 0zM456.25 337.5 a6.25 6.25 0 1 0 12.5 0 a6.25 6.25 0 1 0 -12.5 0z" fill="rgba(211, 81, 0, 1)"></path><path d="M-12.5 187.5L12.5 187.5L37.5 187.5L62.5 187.5L87.5 187.5L112.5 187.5L137.5 187.5L162.5 187.5L187.5 187.5" stroke="rgba(240, 121, 0, 1)" stroke-width="4.17"></path><path d="M181.25 187.5 a6.25 6.25 0 1 0 12.5 0 a6.25 6.25 0 1 0 -12.5 0z" fill="rgba(240, 121, 0, 1)"></path><path d="M187.5 387.5L212.5 412.5L237.5 412.5L262.5 412.5L287.5 412.5M37.5 387.5L62.5 412.5L87.5 412.5L112.5 412.5L137.5 412.5M12.5 387.5L37.5 412.5L62.5 437.5L87.5 437.5M-12.5 387.5L12.5 387.5L37.5 387.5L62.5 387.5L87.5 387.5L112.5 387.5L137.5 387.5L162.5 387.5L187.5 387.5L212.5 387.5L237.5 387.5" stroke="rgba(240, 121, 0, 1)" stroke-width="4.17"></path><path d="M231.25 387.5 a6.25 6.25 0 1 0 12.5 0 a6.25 6.25 0 1 0 -12.5 0zM281.25 412.5 a6.25 6.25 0 1 0 12.5 0 a6.25 6.25 0 1 0 -12.5 0zM131.25 412.5 a6.25 6.25 0 1 0 12.5 0 a6.25 6.25 0 1 0 -12.5 0zM81.25 437.5 a6.25 6.25 0 1 0 12.5 0 a6.25 6.25 0 1 0 -12.5 0z" fill="rgba(240, 121, 0, 1)"></path><path d="M362.5 187.5L387.5 162.5L412.5 162.5L437.5 137.5L462.5 137.5M462.5 187.5L487.5 162.5L512.5 162.5L537.5 162.5L562.5 162.5M87.5 162.5L112.5 137.5L137.5 137.5M437.5 187.5L462.5 162.5M287.5 187.5L312.5 162.5M162.5 162.5L187.5 137.5L212.5 137.5L237.5 137.5L262.5 137.5L287.5 137.5L312.5 137.5L337.5 137.5M-12.5 162.5L12.5 162.5L37.5 162.5L62.5 162.5L87.5 162.5L112.5 162.5L137.5 162.5L162.5 162.5L187.5 162.5L212.5 162.5L237.5 162.5L262.5 187.5L287.5 187.5L312.5 187.5L337.5 187.5L362.5 187.5L387.5 187.5L412.5 187.5L437.5 187.5L462.5 187.5L487.5 187.5L512.5 187.5L537.5 187.5L562.5 187.5" stroke="rgba(211, 81, 0, 1)" stroke-width="4.17"></path><path d="M556.25 187.5 a6.25 6.25 0 1 0 12.5 0 a6.25 6.25 0 1 0 -12.5 0zM456.25 137.5 a6.25 6.25 0 1 0 12.5 0 a6.25 6.25 0 1 0 -12.5 0zM556.25 162.5 a6.25 6.25 0 1 0 12.5 0 a6.25 6.25 0 1 0 -12.5 0zM131.25 137.5 a6.25 6.25 0 1 0 12.5 0 a6.25 6.25 0 1 0 -12.5 0zM456.25 162.5 a6.25 6.25 0 1 0 12.5 0 a6.25 6.25 0 1 0 -12.5 0zM306.25 162.5 a6.25 6.25 0 1 0 12.5 0 a6.25 6.25 0 1 0 -12.5 0zM331.25 137.5 a6.25 6.25 0 1 0 12.5 0 a6.25 6.25 0 1 0 -12.5 0z" fill="rgba(211, 81, 0, 1)"></path></g></g><defs><mask id="SvgjsMask1034"><rect width="1440" height="560" fill="#ffffff"></rect></mask><mask id="SvgjsMask1035"><rect width="1440" height="560" fill="white"></rect><path d="M234.37 287.5 a3.13 3.13 0 1 0 6.26 0 a3.13 3.13 0 1 0 -6.26 0z" fill="black"></path><path d="M509.37 287.5 a3.13 3.13 0 1 0 6.26 0 a3.13 3.13 0 1 0 -6.26 0zM484.37 262.5 a3.13 3.13 0 1 0 6.26 0 a3.13 3.13 0 1 0 -6.26 0zM384.37 262.5 a3.13 3.13 0 1 0 6.26 0 a3.13 3.13 0 1 0 -6.26 0zM534.37 312.5 a3.13 3.13 0 1 0 6.26 0 a3.13 3.13 0 1 0 -6.26 0zM284.37 262.5 a3.13 3.13 0 1 0 6.26 0 a3.13 3.13 0 1 0 -6.26 0z" fill="black"></path><path d="M634.37 362.5 a3.13 3.13 0 1 0 6.26 0 a3.13 3.13 0 1 0 -6.26 0zM659.37 337.5 a3.13 3.13 0 1 0 6.26 0 a3.13 3.13 0 1 0 -6.26 0zM559.37 362.5 a3.13 3.13 0 1 0 6.26 0 a3.13 3.13 0 1 0 -6.26 0zM484.37 312.5 a3.13 3.13 0 1 0 6.26 0 a3.13 3.13 0 1 0 -6.26 0zM634.37 312.5 a3.13 3.13 0 1 0 6.26 0 a3.13 3.13 0 1 0 -6.26 0zM334.37 337.5 a3.13 3.13 0 1 0 6.26 0 a3.13 3.13 0 1 0 -6.26 0zM609.37 387.5 a3.13 3.13 0 1 0 6.26 0 a3.13 3.13 0 1 0 -6.26 0z" fill="black"></path><path d="M534.37 212.5 a3.13 3.13 0 1 0 6.26 0 a3.13 3.13 0 1 0 -6.26 0zM334.37 212.5 a3.13 3.13 0 1 0 6.26 0 a3.13 3.13 0 1 0 -6.26 0zM484.37 237.5 a3.13 3.13 0 1 0 6.26 0 a3.13 3.13 0 1 0 -6.26 0zM659.37 262.5 a3.13 3.13 0 1 0 6.26 0 a3.13 3.13 0 1 0 -6.26 0zM309.37 212.5 a3.13 3.13 0 1 0 6.26 0 a3.13 3.13 0 1 0 -6.26 0zM434.37 212.5 a3.13 3.13 0 1 0 6.26 0 a3.13 3.13 0 1 0 -6.26 0z" fill="black"></path><path d="M84.37 337.5 a3.13 3.13 0 1 0 6.26 0 a3.13 3.13 0 1 0 -6.26 0z" fill="black"></path><path d="M184.37 212.5 a3.13 3.13 0 1 0 6.26 0 a3.13 3.13 0 1 0 -6.26 0z" fill="black"></path><path d="M384.37 362.5 a3.13 3.13 0 1 0 6.26 0 a3.13 3.13 0 1 0 -6.26 0zM184.37 337.5 a3.13 3.13 0 1 0 6.26 0 a3.13 3.13 0 1 0 -6.26 0zM384.37 387.5 a3.13 3.13 0 1 0 6.26 0 a3.13 3.13 0 1 0 -6.26 0zM159.37 337.5 a3.13 3.13 0 1 0 6.26 0 a3.13 3.13 0 1 0 -6.26 0zM459.37 337.5 a3.13 3.13 0 1 0 6.26 0 a3.13 3.13 0 1 0 -6.26 0z" fill="black"></path><path d="M184.37 187.5 a3.13 3.13 0 1 0 6.26 0 a3.13 3.13 0 1 0 -6.26 0z" fill="black"></path><path d="M234.37 387.5 a3.13 3.13 0 1 0 6.26 0 a3.13 3.13 0 1 0 -6.26 0zM284.37 412.5 a3.13 3.13 0 1 0 6.26 0 a3.13 3.13 0 1 0 -6.26 0zM134.37 412.5 a3.13 3.13 0 1 0 6.26 0 a3.13 3.13 0 1 0 -6.26 0zM84.37 437.5 a3.13 3.13 0 1 0 6.26 0 a3.13 3.13 0 1 0 -6.26 0z" fill="black"></path><path d="M559.37 187.5 a3.13 3.13 0 1 0 6.26 0 a3.13 3.13 0 1 0 -6.26 0zM459.37 137.5 a3.13 3.13 0 1 0 6.26 0 a3.13 3.13 0 1 0 -6.26 0zM559.37 162.5 a3.13 3.13 0 1 0 6.26 0 a3.13 3.13 0 1 0 -6.26 0zM134.37 137.5 a3.13 3.13 0 1 0 6.26 0 a3.13 3.13 0 1 0 -6.26 0zM459.37 162.5 a3.13 3.13 0 1 0 6.26 0 a3.13 3.13 0 1 0 -6.26 0zM309.37 162.5 a3.13 3.13 0 1 0 6.26 0 a3.13 3.13 0 1 0 -6.26 0zM334.37 137.5 a3.13 3.13 0 1 0 6.26 0 a3.13 3.13 0 1 0 -6.26 0z" fill="black"></path></mask></defs></svg>