<svg xmlns="http://www.w3.org/2000/svg" version="1.1" xmlns:xlink="http://www.w3.org/1999/xlink" xmlns:svgjs="http://svgjs.dev/svgjs" width="1440" height="560" preserveAspectRatio="none" viewBox="0 0 1440 560"><g mask="url(&quot;#SvgjsMask1191&quot;)" fill="none"><path d="M 0,314 C 36,270.6 108,86.8 180,97 C 252,107.2 288,357.4 360,365 C 432,372.6 468,108.8 540,135 C 612,161.2 648,485 720,496 C 792,507 828,208 900,190 C 972,172 1008,395 1080,406 C 1152,417 1188,218.6 1260,245 C 1332,271.4 1404,479.4 1440,538L1440 560L0 560z" fill="rgba(211, 81, 0, 1)"></path><path d="M 0,149 C 20.6,188.4 61.8,337 103,346 C 144.2,355 164.8,194 206,194 C 247.2,194 267.8,356.2 309,346 C 350.2,335.8 370.8,103.4 412,143 C 453.2,182.6 473.8,539.4 515,544 C 556.2,548.6 576.8,198.8 618,166 C 659.2,133.2 679.8,367.4 721,380 C 762.2,392.6 782.8,227.8 824,229 C 865.2,230.2 885.8,394.2 927,386 C 968.2,377.8 988.8,170.4 1030,188 C 1071.2,205.6 1091.8,472 1133,474 C 1174.2,476 1194.8,221.2 1236,198 C 1277.2,174.8 1298.2,397.4 1339,358 C 1379.8,318.6 1419.8,72.4 1440,1L1440 560L0 560z" fill="rgba(240, 121, 0, 1)"></path><path d="M 0,479 C 28.8,424.2 86.4,210.8 144,205 C 201.6,199.2 230.4,438.2 288,450 C 345.6,461.8 374.4,252.8 432,264 C 489.6,275.2 518.4,527.2 576,506 C 633.6,484.8 662.4,164.2 720,158 C 777.6,151.8 806.4,480.4 864,475 C 921.6,469.6 950.4,116.4 1008,131 C 1065.6,145.6 1094.4,542.2 1152,548 C 1209.6,553.8 1238.4,183.2 1296,160 C 1353.6,136.8 1411.2,377.6 1440,432L1440 560L0 560z" fill="rgba(255, 155, 47, 1)"></path></g><defs><mask id="SvgjsMask1191"><rect width="1440" height="560" fill="#ffffff"></rect></mask></defs></svg>