<svg xmlns="http://www.w3.org/2000/svg" version="1.1" xmlns:xlink="http://www.w3.org/1999/xlink" xmlns:svgjs="http://svgjs.dev/svgjs" width="1440" height="560" preserveAspectRatio="none" viewBox="0 0 1440 560"><g mask="url(&quot;#SvgjsMask1099&quot;)" fill="none"><rect width="1440" height="560" x="0" y="0" fill="rgba(0, 0, 0, 1)"></rect><path d="M 0,8 C 96,16.4 288,44.8 480,50 C 672,55.2 768,32.2 960,34 C 1152,35.8 1344,54 1440,59L1440 560L0 560z" fill="rgba(0, 0, 0, 1)"></path><path d="M 0,108 C 288,123.8 1152,171.2 1440,187L1440 560L0 560z" fill="rgba(0, 0, 0, 1)"></path><path d="M 0,189 C 72,198.2 216,233 360,235 C 504,237 576,196.6 720,199 C 864,201.4 936,246.2 1080,247 C 1224,247.8 1368,211.8 1440,203L1440 560L0 560z" fill="rgba(211, 81, 0, 1)"></path><path d="M 0,364 C 96,354.8 288,317.4 480,318 C 672,318.6 768,372.8 960,367 C 1152,361.2 1344,304.6 1440,289L1440 560L0 560z" fill="rgba(240, 121, 0, 1)"></path><path d="M 0,440 C 96,431.4 288,397 480,397 C 672,397 768,440 960,440 C 1152,440 1344,405.6 1440,397L1440 560L0 560z" fill="rgba(255, 155, 47, 1)"></path><path d="M 0,488 C 96,497.8 288,537.8 480,537 C 672,536.2 768,485.6 960,484 C 1152,482.4 1344,520 1440,529L1440 560L0 560z" fill="rgba(0, 0, 0, 1)"></path></g><defs><mask id="SvgjsMask1099"><rect width="1440" height="560" fill="#ffffff"></rect></mask></defs></svg>