<svg version="1.1" id="Layer_1" xmlns="http://www.w3.org/2000/svg" xmlns:xlink="http://www.w3.org/1999/xlink" x="0px" y="0px"
	 width="100%" viewBox="0 0 1920 1080" enable-background="new 0 0 1920 1080" xml:space="preserve">
<path fill="#000000" opacity="1.000000" stroke="none" 
	d="
M1809.000000,1081.000000 
	C1206.452515,1081.000000 603.904968,1081.000000 1.000000,1081.000000 
	C1.000000,997.302734 1.000000,913.604980 1.468655,829.454102 
	C16.160196,828.349365 30.392340,827.853333 44.603691,827.007874 
	C63.686882,825.872559 82.426384,822.504089 101.024803,818.110657 
	C131.714859,810.860901 161.329636,800.562012 189.612091,786.679199 
	C214.644333,774.391724 238.212662,759.693726 260.228149,742.455688 
	C282.366333,725.121521 302.653290,705.994507 321.003235,684.661621 
	C340.348694,662.171509 356.911682,637.822815 370.875916,611.763733 
	C390.607117,574.942688 404.487457,536.020020 412.248810,494.835175 
	C416.851044,470.414062 418.976929,445.842957 419.868073,421.112640 
	C420.147980,413.344116 419.505249,405.522919 418.960754,397.748535 
	C418.061798,384.912323 417.831726,371.932068 415.630280,359.307068 
	C412.306915,340.248016 408.426208,321.190338 403.190613,302.579895 
	C391.275909,260.227905 372.930298,220.680725 347.266022,184.847076 
	C335.853577,168.912567 323.789124,153.328522 310.771301,138.696915 
	C300.219604,126.837181 288.209839,116.158211 276.094757,105.838356 
	C263.688843,95.270775 250.809479,85.131584 237.362061,75.939018 
	C202.651672,52.211151 164.859070,34.791481 124.483063,23.005358 
	C99.512688,15.716282 74.056564,10.693933 48.211803,8.151581 
	C32.555485,6.611466 16.742563,6.663356 1.000000,6.000000 
	C1.000000,4.333678 1.000000,2.667355 1.000000,1.051163 
	C641.000000,1.051163 1281.000000,1.051163 1921.000000,1.051163 
	C1921.000000,16.432463 1921.000000,31.762598 1920.540649,47.579308 
	C1908.849487,47.377331 1897.615845,46.114716 1886.386230,46.147797 
	C1872.819092,46.187759 1859.200806,46.782261 1845.703979,48.130215 
	C1829.964478,49.702152 1814.120361,51.365379 1798.689209,54.693722 
	C1722.298462,71.170471 1656.759399,108.144989 1600.563721,161.940750 
	C1546.978760,213.237442 1508.378906,274.484222 1481.477905,343.396729 
	C1470.804077,370.740051 1462.600830,398.845337 1456.299438,427.410797 
	C1452.050659,446.671265 1449.889648,466.415802 1447.305176,486.011139 
	C1445.707886,498.121552 1444.310059,510.348480 1444.152832,522.540283 
	C1443.797974,550.074707 1443.238159,577.657654 1447.030029,605.064148 
	C1449.386597,622.097961 1450.428345,639.444641 1454.393433,656.095276 
	C1460.917480,683.492249 1469.138184,710.496094 1477.080444,737.537354 
	C1479.245850,744.910217 1482.972900,751.824463 1485.993652,759.216919 
	C1486.011719,759.663086 1486.019287,759.841553 1486.018555,760.166260 
	C1486.302368,760.547729 1486.594238,760.782898 1487.024170,761.314087 
	C1488.119629,764.413818 1489.076904,767.217590 1490.103394,770.285156 
	C1490.427979,771.026306 1490.683472,771.503601 1490.979248,772.327393 
	C1491.348022,773.783142 1491.676392,774.892517 1492.160156,776.177490 
	C1492.529663,776.581482 1492.756104,776.796692 1492.997559,776.999390 
	C1493.000000,777.000000 1493.000000,777.005188 1493.041016,777.389709 
	C1493.667725,779.855225 1494.140381,781.976074 1494.856201,784.011414 
	C1508.347900,822.371338 1526.219971,858.587219 1548.443115,892.627319 
	C1572.703491,929.787598 1601.510620,962.971130 1635.260254,991.884888 
	C1657.230713,1010.707153 1680.803223,1027.176514 1706.163208,1040.996582 
	C1737.323975,1057.977661 1770.154053,1070.778320 1804.806885,1078.744385 
	C1806.298584,1079.087280 1807.606567,1080.229858 1809.000000,1081.000000 
z"/>
<path fill="#030109" opacity="1.000000" stroke="none" 
	d="
M1492.004883,776.001831 
	C1491.676392,774.892517 1491.348022,773.783142 1490.911621,772.064148 
	C1490.547241,770.976807 1490.290649,770.499084 1490.034180,770.021423 
	C1489.076904,767.217590 1488.119629,764.413818 1486.898315,761.133362 
	C1486.450073,760.427063 1486.247559,760.214844 1486.026733,760.020020 
	C1486.019287,759.841553 1486.011719,759.663086 1486.036133,758.810181 
	C1485.786743,756.855591 1485.527710,755.569946 1485.220825,754.295837 
	C1481.679077,739.592651 1478.130005,724.891174 1474.768311,709.962402 
	C1474.653931,708.823914 1474.354126,707.912170 1473.918213,706.711792 
	C1473.734009,706.003418 1473.686035,705.583801 1473.814575,704.928345 
	C1473.602295,703.816528 1473.213501,702.940491 1472.514160,701.802368 
	C1470.293091,687.511169 1468.200806,673.503540 1466.536743,659.445190 
	C1465.458618,650.335388 1465.005859,641.151550 1464.494873,631.863892 
	C1464.529175,630.817871 1464.341431,629.908936 1464.045654,628.588257 
	C1463.625732,626.084656 1463.053223,623.994141 1463.041260,621.900452 
	C1462.869141,591.799377 1462.553711,561.683289 1467.062500,531.795898 
	C1469.165527,517.855835 1471.477661,503.947266 1473.977539,489.900635 
	C1474.373291,488.793152 1474.486694,487.809387 1474.613037,486.423523 
	C1475.417236,482.681030 1476.208496,479.340607 1477.253052,475.867401 
	C1477.570557,474.780579 1477.634888,473.826538 1477.718384,472.468933 
	C1483.442505,452.692749 1489.147461,433.320129 1495.115234,413.838623 
	C1495.543091,412.803711 1495.707886,411.877655 1495.898682,410.575439 
	C1505.582275,383.485901 1517.032227,357.594391 1531.575439,332.957672 
	C1532.076904,332.209167 1532.326416,331.508820 1532.694946,330.470642 
	C1540.265625,318.422180 1547.717041,306.711578 1555.527832,294.941833 
	C1556.883057,293.139282 1557.879150,291.395874 1558.954102,289.330322 
	C1564.675293,281.667297 1570.317383,274.326447 1576.313599,266.907440 
	C1577.395874,265.714172 1578.123901,264.599060 1578.962646,263.183472 
	C1584.004639,257.238892 1588.936157,251.594742 1594.220947,245.887329 
	C1595.341919,244.771255 1596.109619,243.718445 1597.004517,242.366348 
	C1605.984619,233.339890 1614.837646,224.612732 1624.046387,215.845947 
	C1625.257324,214.841568 1626.112549,213.876801 1627.119873,212.616699 
	C1630.996582,209.164337 1634.721191,206.007324 1638.817139,202.822723 
	C1640.123413,201.857162 1641.058350,200.919174 1642.159790,199.691696 
	C1650.173706,193.504456 1658.021362,187.606689 1666.083008,181.825653 
	C1666.875244,181.328003 1667.453369,180.713638 1668.237183,179.828613 
	C1672.569580,176.909622 1676.696411,174.261307 1681.028564,171.744598 
	C1681.822754,171.312576 1682.411743,170.748962 1683.245483,169.940765 
	C1686.926025,167.649155 1690.361816,165.602127 1693.996338,163.696075 
	C1694.797729,163.314529 1695.400513,162.791992 1696.279297,162.049561 
	C1700.294434,159.720108 1704.033569,157.610550 1708.022217,155.706207 
	C1711.092529,157.332153 1711.571167,155.363708 1712.303467,153.130325 
	C1717.396973,150.609390 1722.192749,148.289169 1727.242676,146.099579 
	C1728.285889,145.678802 1729.074829,145.127380 1730.129395,144.364868 
	C1738.917358,140.737442 1747.439575,137.321106 1756.207275,134.046661 
	C1757.271851,133.707611 1758.090942,133.226685 1759.169556,132.509384 
	C1761.928345,131.457443 1764.427612,130.641876 1767.165771,129.980087 
	C1768.253906,129.710693 1769.103149,129.287521 1770.224854,128.626923 
	C1779.623413,125.833244 1788.749878,123.276978 1798.109497,120.889008 
	C1799.228638,120.693871 1800.114502,120.330421 1801.315430,119.751534 
	C1812.009033,117.499275 1822.387573,115.462463 1832.983398,113.629181 
	C1834.133667,113.596016 1835.066772,113.359314 1836.364014,112.916351 
	C1841.257812,112.128876 1845.772217,111.340874 1850.320068,111.008942 
	C1860.199829,110.287849 1870.099854,109.277267 1879.985352,109.342690 
	C1893.659912,109.433182 1907.328735,110.405388 1921.000000,111.000000 
	C1921.000000,129.020889 1921.000000,147.041794 1920.665039,165.505951 
	C1919.887085,165.894699 1919.443970,165.840179 1918.868042,165.558441 
	C1917.823242,165.501678 1916.911255,165.672150 1915.548828,165.928177 
	C1905.139526,166.876617 1895.180786,167.739487 1885.008179,168.396362 
	C1883.862793,168.421951 1882.931396,168.653564 1881.595581,169.002594 
	C1878.065186,169.597549 1874.907471,169.925125 1871.818359,170.577621 
	C1855.233398,174.080948 1838.665405,177.665146 1821.854858,181.060822 
	C1820.744995,181.296066 1819.871948,181.691925 1818.738525,182.316315 
	C1817.356567,182.785980 1816.234863,183.027115 1814.870361,183.105530 
	C1813.790161,183.404358 1812.952393,183.865906 1811.834229,184.551056 
	C1805.048096,186.881531 1798.542480,188.988373 1791.790771,190.953918 
	C1790.729370,191.299927 1789.913818,191.787216 1788.846680,192.516541 
	C1785.408936,193.870773 1782.222778,194.982986 1778.784058,195.956512 
	C1777.735474,196.360184 1776.939697,196.902496 1775.886353,197.652985 
	C1773.757324,198.587036 1771.885742,199.312912 1769.759399,199.907867 
	C1768.717651,200.332916 1767.930786,200.888885 1766.886230,201.653046 
	C1764.754517,202.580246 1762.880493,203.299240 1760.704834,203.850769 
	C1753.903320,206.441452 1747.379395,209.146255 1740.943115,212.045715 
	C1740.343628,212.315811 1740.299561,213.819244 1739.723633,214.961884 
	C1738.035767,215.944199 1736.621582,216.714645 1734.977783,217.316162 
	C1733.847778,217.808121 1732.947388,218.469025 1731.861694,219.398178 
	C1730.515015,220.256775 1729.353760,220.847137 1727.948486,221.253418 
	C1726.815430,221.747589 1725.926392,222.425827 1724.846069,223.378448 
	C1722.504150,224.924057 1720.353394,226.195267 1718.000366,227.325485 
	C1717.198486,227.735458 1716.599121,228.286423 1715.757812,229.082016 
	C1712.738525,231.024048 1709.961182,232.721451 1706.974609,234.285461 
	C1706.167725,234.739075 1705.569946,235.326080 1704.772827,236.186981 
	C1698.090820,241.069962 1691.608032,245.679047 1684.908447,250.174164 
	C1684.124023,250.695160 1683.556274,251.330093 1682.813599,252.252106 
	C1678.821533,255.500687 1675.004272,258.462219 1670.943481,261.264008 
	C1669.812256,262.102631 1668.924561,263.101013 1667.916260,264.371307 
	C1666.714600,265.481506 1665.633667,266.319763 1664.178467,267.187408 
	C1662.885254,268.186188 1661.966187,269.155609 1660.893555,270.417175 
	C1656.955566,274.185181 1653.171143,277.661041 1648.986450,281.128235 
	C1642.885132,282.081970 1640.533325,284.692352 1640.007812,290.763763 
	C1636.598755,294.373108 1633.334595,297.699219 1629.694092,301.074890 
	C1628.267700,302.610199 1627.217651,304.095886 1626.059570,305.854034 
	C1625.001465,307.096741 1624.051636,308.066986 1622.723389,309.084076 
	C1621.285889,310.614471 1620.226807,312.098022 1619.043701,313.874023 
	C1615.957153,317.781464 1612.994751,321.396393 1609.759399,325.047333 
	C1609.117432,325.777863 1608.748291,326.472412 1608.244385,327.487976 
	C1603.019043,334.872253 1597.928345,341.935547 1592.575684,349.042786 
	C1592.025269,349.790253 1591.736938,350.493835 1591.319092,351.527985 
	C1588.152832,356.581787 1585.116211,361.305054 1581.778198,366.203796 
	C1581.032959,367.407745 1580.589233,368.436157 1580.090332,369.761047 
	C1579.383301,371.047760 1578.731445,372.038025 1577.778320,373.203796 
	C1577.033081,374.407745 1576.589233,375.436188 1576.089355,376.782959 
	C1575.263794,378.399567 1574.494141,379.697815 1573.383057,381.046173 
	C1567.889282,383.625702 1565.607300,388.607758 1567.373047,393.539062 
	C1566.002808,396.298889 1564.753784,398.727783 1563.227783,401.226501 
	C1562.649414,402.231232 1562.348022,403.166138 1562.029541,404.437897 
	C1561.175049,406.568085 1560.337891,408.361389 1559.223633,410.225037 
	C1558.646729,411.230591 1558.346680,412.165771 1558.035156,413.419678 
	C1557.476929,414.870270 1556.930176,416.002167 1556.142334,417.207947 
	C1555.777100,417.925323 1555.652832,418.568848 1555.425903,419.565552 
	C1554.339600,422.322754 1553.356079,424.726776 1552.092896,427.217041 
	C1551.588257,428.218933 1551.363403,429.134583 1551.112793,430.426575 
	C1547.421143,441.534882 1543.755371,452.266815 1539.829346,463.125458 
	C1539.474487,464.205872 1539.379517,465.159607 1539.258667,466.503815 
	C1538.152588,470.596222 1537.072510,474.298157 1535.738770,478.138092 
	C1535.459229,479.239563 1535.433472,480.203064 1535.383545,481.545654 
	C1534.896240,483.616638 1534.433350,485.308563 1533.719971,487.135498 
	C1533.417603,488.222443 1533.365845,489.174316 1533.298462,490.538330 
	C1531.157715,503.633698 1529.032715,516.316895 1526.662354,529.167419 
	C1526.446655,530.471130 1526.476318,531.607544 1526.555176,533.153320 
	C1526.018921,539.708313 1525.433350,545.854004 1524.597168,552.148865 
	C1524.240845,553.554565 1524.135010,554.811035 1524.016357,556.531860 
	C1524.577026,575.330261 1525.150391,593.664307 1525.501953,612.135742 
	C1525.469360,613.182190 1525.658569,614.091309 1525.936523,615.389587 
	C1526.185425,617.604553 1526.345825,619.430237 1526.345215,621.547485 
	C1526.425415,622.892639 1526.666504,623.946289 1527.025879,625.342651 
	C1527.264771,626.875610 1527.385498,628.065796 1527.345337,629.547485 
	C1527.425415,630.892639 1527.666382,631.946289 1528.034424,633.403381 
	C1530.211182,645.160522 1532.261108,656.514160 1534.138672,668.096802 
	C1534.301025,669.217102 1534.635742,670.108459 1535.158813,671.337280 
	C1536.310181,675.750427 1537.273193,679.825989 1538.073486,684.137085 
	C1538.297974,685.248657 1538.685059,686.124756 1539.303711,687.290649 
	C1540.117310,690.013733 1540.699341,692.447021 1541.070312,695.193359 
	C1539.919678,700.206604 1540.507324,704.335205 1545.383545,707.215088 
	C1547.113892,711.975281 1548.601929,716.470337 1549.949707,721.212280 
	C1550.305420,722.270813 1550.801514,723.082397 1551.532959,724.154907 
	C1552.884888,727.595154 1554.001465,730.774414 1554.940430,734.243958 
	C1553.650879,737.178833 1554.941406,738.371155 1557.598389,739.100220 
	C1558.224976,740.520813 1558.635498,741.709167 1558.960205,743.175293 
	C1559.416382,744.251587 1559.958496,745.050171 1560.693604,746.115723 
	C1561.616577,748.245422 1562.346558,750.108032 1562.894287,752.282959 
	C1561.926025,758.040955 1563.825317,761.435486 1569.343506,764.189697 
	C1571.569580,768.200928 1573.530151,771.994934 1575.344360,775.984375 
	C1575.706787,776.787659 1576.215698,777.395447 1576.944336,778.284119 
	C1585.914307,792.315979 1594.664551,806.067017 1603.281982,820.027344 
	C1603.737305,820.833618 1604.325439,821.430664 1605.164062,822.188354 
	C1605.726929,822.847778 1606.039307,823.346558 1606.230713,824.062134 
	C1606.746460,824.850342 1607.383179,825.421631 1608.312134,826.156494 
	C1613.528931,832.490906 1618.453491,838.661743 1623.224487,845.078064 
	C1624.081177,846.203125 1625.091431,847.082642 1626.390381,848.104980 
	C1627.601807,849.432373 1628.524658,850.617004 1629.270142,852.063110 
	C1628.244141,856.023987 1630.963623,855.690613 1633.469238,856.076416 
	C1644.187744,866.450500 1654.609497,876.682190 1665.104980,887.270264 
	C1666.282349,888.367065 1667.386108,889.107483 1668.768799,889.949219 
	C1670.047363,890.991821 1671.046875,891.933105 1672.075439,893.209106 
	C1673.150635,894.173523 1674.196777,894.803223 1675.547119,895.587891 
	C1677.564697,897.170410 1679.278198,898.597961 1681.029785,900.293579 
	C1681.754639,900.941162 1682.441162,901.320618 1683.446655,901.821045 
	C1685.839966,903.639282 1687.914429,905.336609 1690.029907,907.303101 
	C1690.772095,907.915649 1691.473267,908.259033 1692.486572,908.724731 
	C1694.189819,909.927307 1695.581177,911.007507 1697.017212,912.353760 
	C1697.765869,912.947144 1698.469849,913.274658 1699.485840,913.724731 
	C1701.189453,914.927490 1702.580933,916.007690 1704.026367,917.442749 
	C1705.443359,921.966736 1708.673462,922.983459 1712.900635,922.909668 
	C1714.805908,924.049744 1716.402222,925.118530 1718.043579,926.448120 
	C1718.794312,926.982666 1719.499878,927.256409 1720.532227,927.664307 
	C1723.581421,929.506958 1726.304077,931.215576 1729.201660,933.224609 
	C1730.401001,933.968689 1731.425415,934.412292 1732.749023,934.903442 
	C1734.044312,935.600037 1735.040283,936.249207 1736.116455,937.190063 
	C1737.194336,937.840820 1738.192261,938.199890 1739.529785,938.682800 
	C1747.628174,942.723694 1755.387085,946.640686 1763.223389,950.841187 
	C1764.204956,951.402649 1765.109009,951.680664 1766.354248,951.979004 
	C1768.514771,952.832397 1770.334106,953.665466 1772.228027,954.786621 
	C1773.208374,955.363159 1774.114014,955.651611 1775.388062,955.970642 
	C1779.537842,957.575195 1783.319214,959.149170 1787.194702,960.995361 
	C1788.204224,961.477844 1789.119873,961.688110 1790.411621,961.920776 
	C1794.525146,963.330078 1798.262573,964.716980 1802.149292,966.402832 
	C1806.329224,970.231445 1810.618896,972.888977 1816.682129,970.873047 
	C1821.708984,972.232178 1826.354004,973.581909 1831.125732,975.189575 
	C1832.202026,975.545532 1833.151733,975.643555 1834.502808,975.762817 
	C1844.602905,977.873169 1854.301636,979.962158 1864.147705,982.302490 
	C1865.266968,982.515625 1866.238770,982.477478 1867.572021,982.436035 
	C1868.622559,982.645508 1869.311401,982.858276 1870.146484,983.320557 
	C1871.262695,983.546082 1872.232788,983.522095 1873.626709,983.514526 
	C1877.366943,984.057861 1880.683472,984.584717 1884.153931,985.357727 
	C1885.277954,985.531433 1886.248169,985.459045 1887.656738,985.365112 
	C1899.063477,986.229065 1910.031738,987.114563 1921.000000,988.000000 
	C1921.000000,1018.931335 1921.000000,1049.862671 1921.000000,1081.000000 
	C1886.312744,1081.000000 1851.625000,1081.000000 1816.345825,1080.667236 
	C1813.458862,1079.212402 1811.276245,1077.605835 1808.850952,1077.041138 
	C1774.770386,1069.105835 1742.262085,1057.205200 1711.254883,1040.791870 
	C1676.075806,1022.170349 1644.526855,998.739441 1615.979248,971.249451 
	C1604.739136,960.425537 1594.497192,948.519226 1584.263672,936.704895 
	C1560.588379,909.372192 1540.913208,879.205017 1524.798462,846.964905 
	C1514.177979,825.716919 1505.964111,803.268250 1496.557861,781.406616 
	C1495.839844,779.738098 1494.207397,778.463135 1493.000000,777.005249 
	C1493.000000,777.005188 1493.000000,777.000000 1492.841309,776.824585 
	C1492.467896,776.421692 1492.241943,776.205872 1492.004883,776.001831 
z"/>
<path fill="#000000" opacity="1.000000" stroke="none" 
	d="
M1.000000,581.000000 
	C1.000000,415.975098 1.000000,250.950180 1.468658,85.462952 
	C28.338974,84.002144 54.178680,87.091713 79.528702,94.793060 
	C123.940453,108.285370 161.759552,132.229431 192.945328,166.411819 
	C215.475006,191.106339 232.052994,219.618652 243.027069,251.174759 
	C255.232117,286.270569 259.062744,322.404205 255.196213,359.417267 
	C252.130783,388.761475 243.989853,416.599670 230.839386,442.894440 
	C216.952927,470.660797 198.609772,495.122040 175.532394,516.103699 
	C149.681335,539.607239 120.257057,556.831543 87.254372,567.946838 
	C59.306988,577.359680 30.442699,581.214539 1.000000,581.000000 
z"/>
<path fill="#ED5716" opacity="1.000000" stroke="none" 
	d="
M1575.490967,775.788940 
	C1573.530151,771.994934 1571.569580,768.200928 1569.299072,763.830627 
	C1567.018188,759.493164 1565.047241,755.731934 1563.076416,751.970703 
	C1562.346558,750.108032 1561.616577,748.245422 1560.601074,745.792847 
	C1559.892334,744.434387 1559.469238,743.665955 1559.046143,742.897522 
	C1558.635498,741.709167 1558.224976,740.520813 1557.525391,738.762817 
	C1556.530273,736.780090 1555.824097,735.366882 1555.118042,733.953674 
	C1554.001465,730.774414 1552.884888,727.595154 1551.495850,723.829956 
	C1550.845581,722.484497 1550.467773,721.724915 1550.089966,720.965332 
	C1548.601929,716.470337 1547.113892,711.975281 1545.373291,706.828430 
	C1543.840820,702.411133 1542.561035,698.645691 1541.281250,694.880249 
	C1540.699341,692.447021 1540.117310,690.013733 1539.321045,686.958862 
	C1538.816406,685.525391 1538.526245,684.713501 1538.236084,683.901611 
	C1537.273193,679.825989 1536.310181,675.750427 1535.198486,671.008545 
	C1534.803589,669.517395 1534.557373,668.692566 1534.311035,667.867798 
	C1532.261108,656.514160 1530.211182,645.160522 1528.086548,633.024780 
	C1527.843262,631.247131 1527.674683,630.251526 1527.506104,629.255981 
	C1527.385498,628.065796 1527.264771,626.875610 1527.078125,624.964050 
	C1526.843384,623.247070 1526.674805,622.251526 1526.506104,621.255981 
	C1526.345825,619.430237 1526.185425,617.604553 1525.997559,615.014465 
	C1525.887817,613.499573 1525.805908,612.748962 1525.723877,611.998413 
	C1525.150391,593.664307 1524.577026,575.330261 1524.323975,556.324951 
	C1524.712280,554.435791 1524.780029,553.217712 1524.847900,551.999695 
	C1525.433350,545.854004 1526.018921,539.708313 1526.707275,532.801514 
	C1526.842651,531.026978 1526.875122,530.013550 1526.907471,529.000122 
	C1529.032715,516.316895 1531.157715,503.633698 1533.500732,490.277039 
	C1533.802612,488.735901 1533.886597,487.868164 1533.970459,487.000458 
	C1534.433350,485.308563 1534.896240,483.616638 1535.561035,481.267212 
	C1535.839478,479.739838 1535.916016,478.869995 1535.992554,478.000122 
	C1537.072510,474.298157 1538.152588,470.596222 1539.472412,466.249481 
	C1539.838013,464.736053 1539.963745,463.867401 1540.089478,462.998779 
	C1543.755371,452.266815 1547.421143,441.534882 1551.352295,430.206726 
	C1551.869263,428.783966 1552.120972,427.957367 1552.372559,427.130768 
	C1553.356079,424.726776 1554.339600,422.322754 1555.609131,419.345947 
	C1556.057861,418.226837 1556.220703,417.680450 1556.383423,417.134064 
	C1556.930176,416.002167 1557.476929,414.870270 1558.284668,413.195801 
	C1558.864014,411.820374 1559.182373,410.987518 1559.500610,410.154694 
	C1560.337891,408.361389 1561.175049,406.568085 1562.279053,404.213989 
	C1562.865356,402.821045 1563.185059,401.988861 1563.504761,401.156677 
	C1564.753784,398.727783 1566.002808,396.298889 1567.592773,393.282166 
	C1569.863770,388.794861 1571.794067,384.895447 1573.724365,380.996063 
	C1574.494141,379.697815 1575.263794,378.399567 1576.357178,376.577209 
	C1577.147217,375.044891 1577.613403,374.036621 1578.079590,373.028351 
	C1578.731445,372.038025 1579.383301,371.047760 1580.357910,369.555267 
	C1581.147095,368.044830 1581.613403,367.036591 1582.079590,366.028320 
	C1585.116211,361.305054 1588.152832,356.581787 1591.534058,351.365875 
	C1592.198242,350.248413 1592.517944,349.623657 1592.837646,348.998901 
	C1597.928345,341.935547 1603.019043,334.872253 1608.485962,327.344604 
	C1609.252197,326.257294 1609.642212,325.634308 1610.032227,325.011353 
	C1612.994751,321.396393 1615.957153,317.781464 1619.332275,313.692139 
	C1620.863770,311.824280 1621.982788,310.430756 1623.101685,309.037231 
	C1624.051636,308.066986 1625.001465,307.096741 1626.347900,305.672302 
	C1627.853149,303.820526 1628.961670,302.422913 1630.070312,301.025330 
	C1633.334595,297.699219 1636.598755,294.373108 1640.305664,290.583862 
	C1643.627686,287.126129 1646.507202,284.131531 1649.386597,281.136932 
	C1653.171143,277.661041 1656.955566,274.185181 1661.203857,270.299500 
	C1662.629272,268.979156 1663.590942,268.068634 1664.552612,267.158081 
	C1665.633667,266.319763 1666.714600,265.481506 1668.201172,264.273682 
	C1669.466797,263.077271 1670.326904,262.250458 1671.187012,261.423706 
	C1675.004272,258.462219 1678.821533,255.500687 1683.089355,252.190369 
	C1684.068359,251.323807 1684.596802,250.806030 1685.125244,250.288177 
	C1691.608032,245.679047 1698.090820,241.069962 1705.045044,236.142548 
	C1706.072266,235.355743 1706.628052,234.887283 1707.183838,234.418823 
	C1709.961182,232.721451 1712.738525,231.024048 1716.023438,229.049652 
	C1717.088379,228.337250 1717.645508,227.901855 1718.202759,227.466461 
	C1720.353394,226.195267 1722.504150,224.924057 1725.147217,223.335144 
	C1726.490479,222.490799 1727.341431,221.964157 1728.192383,221.437500 
	C1729.353760,220.847137 1730.515015,220.256775 1732.161377,219.353027 
	C1733.500122,218.521439 1734.353882,218.003250 1735.207520,217.485077 
	C1736.621582,216.714645 1738.035767,215.944199 1740.057617,214.882278 
	C1747.445923,211.066650 1754.226196,207.542480 1761.006470,204.018280 
	C1762.880493,203.299240 1764.754517,202.580246 1767.203369,201.572922 
	C1768.523438,200.869339 1769.268799,200.454086 1770.014160,200.038818 
	C1771.885742,199.312912 1773.757324,198.587036 1776.202881,197.573425 
	C1777.530273,196.888855 1778.283447,196.492020 1779.036743,196.095184 
	C1782.222778,194.982986 1785.408936,193.870773 1789.171143,192.480286 
	C1790.510498,191.833084 1791.273682,191.464172 1792.036743,191.095245 
	C1798.542480,188.988373 1805.048096,186.881531 1812.158203,184.520538 
	C1813.546021,183.933670 1814.329590,183.600937 1815.113037,183.268219 
	C1816.234863,183.027115 1817.356567,182.785980 1819.070679,182.330063 
	C1820.472534,181.817337 1821.281982,181.519379 1822.091553,181.221436 
	C1838.665405,177.665146 1855.233398,174.080948 1871.818359,170.577621 
	C1874.907471,169.925125 1878.065186,169.597549 1881.919189,169.059586 
	C1883.505615,168.866882 1884.363892,168.734604 1885.222168,168.602341 
	C1895.180786,167.739487 1905.139526,166.876617 1915.922363,165.991333 
	C1917.497925,165.907852 1918.249512,165.846771 1919.000977,165.785675 
	C1919.443970,165.840179 1919.887085,165.894699 1920.665039,165.974609 
	C1921.000000,196.020889 1921.000000,226.041794 1920.576904,256.433716 
	C1914.265259,257.882568 1908.354736,258.853638 1902.491333,260.054565 
	C1843.886841,272.057861 1791.815308,297.607483 1746.055908,336.005554 
	C1712.778198,363.930023 1685.797607,397.088196 1664.742065,435.098694 
	C1639.084839,481.417145 1624.803955,531.162170 1621.308350,583.811707 
	C1619.791748,606.653564 1620.610107,629.626526 1623.783325,652.472656 
	C1629.234497,691.717529 1640.070435,729.339111 1658.491577,764.373474 
	C1714.557617,871.003113 1802.408203,934.269531 1921.000000,955.000000 
	C1921.000000,965.687561 1921.000000,976.375122 1921.000000,987.531372 
	C1910.031738,987.114563 1899.063477,986.229065 1887.350586,985.247681 
	C1885.737183,985.138367 1884.868652,985.125000 1884.000000,985.111633 
	C1880.683472,984.584717 1877.366943,984.057861 1873.331177,983.368469 
	C1871.741333,983.160950 1870.870850,983.116028 1870.000244,983.071045 
	C1869.311401,982.858276 1868.622559,982.645508 1867.272461,982.300171 
	C1865.740845,982.128845 1864.870605,982.090027 1864.000244,982.051208 
	C1854.301636,979.962158 1844.602905,977.873169 1834.251465,975.546997 
	C1832.732056,975.183716 1831.865601,975.057678 1830.999023,974.931580 
	C1826.354004,973.581909 1821.708984,972.232178 1816.402710,970.622864 
	C1811.160889,968.943481 1806.580444,967.523682 1801.999878,966.103882 
	C1798.262573,964.716980 1794.525146,963.330078 1790.192261,961.679504 
	C1788.764648,961.184875 1787.932739,960.954041 1787.100708,960.723145 
	C1783.319214,959.149170 1779.537842,957.575195 1775.174561,955.721802 
	C1773.779785,955.127747 1772.966553,954.813171 1772.153442,954.498535 
	C1770.334106,953.665466 1768.514771,952.832397 1766.139038,951.733337 
	C1764.770386,951.164185 1763.958252,950.860962 1763.145996,950.557739 
	C1755.387085,946.640686 1747.628174,942.723694 1739.323730,938.460022 
	C1737.864380,937.708313 1736.950317,937.303284 1736.036377,936.898315 
	C1735.040283,936.249207 1734.044312,935.600037 1732.545898,934.634766 
	C1731.037964,933.853760 1730.032227,933.388977 1729.026611,932.924194 
	C1726.304077,931.215576 1723.581421,929.506958 1720.364014,927.458130 
	C1719.245728,926.807617 1718.622070,926.497437 1717.998535,926.187256 
	C1716.402222,925.118530 1714.805908,924.049744 1712.680908,922.626709 
	C1709.425659,920.544189 1706.699097,918.816040 1703.972534,917.087891 
	C1702.580933,916.007690 1701.189453,914.927490 1699.330566,913.496582 
	C1698.233032,912.793091 1697.602783,912.440430 1696.972534,912.087769 
	C1695.581177,911.007507 1694.189819,909.927307 1692.333984,908.492554 
	C1691.242432,907.770020 1690.615723,907.401978 1689.988892,907.033875 
	C1687.914429,905.336609 1685.839966,903.639282 1683.317505,901.570679 
	C1682.243530,900.808167 1681.617554,900.416870 1680.991577,900.025513 
	C1679.278198,898.597961 1677.564697,897.170410 1675.359375,895.360352 
	C1673.927124,894.276733 1672.986816,893.575562 1672.046509,892.874390 
	C1671.046875,891.933105 1670.047363,890.991821 1668.598755,889.665588 
	C1667.110229,888.491760 1666.070679,887.702820 1665.031250,886.913940 
	C1654.609497,876.682190 1644.187744,866.450500 1633.350830,855.784119 
	C1631.772827,854.166809 1630.610107,852.984253 1629.447388,851.801636 
	C1628.524658,850.617004 1627.601807,849.432373 1626.292725,847.818237 
	C1625.063599,846.536743 1624.220825,845.684692 1623.378052,844.832581 
	C1618.453491,838.661743 1613.528931,832.490906 1608.241577,825.884766 
	C1607.369873,824.914734 1606.860840,824.379944 1606.351807,823.845215 
	C1606.039307,823.346558 1605.726929,822.847778 1605.114990,821.917419 
	C1604.348633,820.929810 1603.881714,820.373901 1603.414795,819.817993 
	C1594.664551,806.067017 1585.914307,792.315979 1576.904297,778.027710 
	C1576.260010,776.923279 1575.875488,776.356079 1575.490967,775.788940 
z"/>
<path fill="#000000" opacity="1.000000" stroke="none" 
	d="
M1921.000000,330.000000 
	C1921.000000,492.691559 1921.000000,655.383118 1920.580566,818.526245 
	C1912.856567,817.281006 1905.420776,816.013611 1898.267700,813.822510 
	C1805.255737,785.330811 1746.621460,723.785767 1722.438232,629.682922 
	C1719.061768,616.544312 1717.013062,602.848145 1716.259155,589.303772 
	C1715.192627,570.141846 1715.411499,550.814758 1719.936401,531.948853 
	C1723.350342,517.716370 1726.153687,503.177795 1731.267822,489.540070 
	C1756.329468,422.707092 1801.921387,374.983795 1867.236694,346.145721 
	C1884.484253,338.530579 1902.508179,333.481659 1921.000000,330.000000 
z"/>
<path fill="#030109" opacity="1.000000" stroke="none" 
	d="
M0.999999,732.000000 
	C1.000000,706.312439 1.000000,680.624878 1.467495,654.504456 
	C23.726871,654.871155 45.334381,653.152283 66.679222,648.766235 
	C98.361862,642.256042 128.480255,631.435669 156.794693,615.648682 
	C189.222244,597.568359 217.367722,574.236633 241.293350,545.993225 
	C263.748505,519.485840 280.930969,489.705841 293.126343,457.137299 
	C306.808624,420.597839 313.237488,382.913177 312.201782,343.780975 
	C311.696259,324.681030 309.828827,305.897034 306.012085,287.235657 
	C298.167328,248.879684 283.024811,213.522446 261.273376,181.120667 
	C245.166290,157.126953 226.190491,135.605072 203.774765,117.060715 
	C179.824692,97.247017 153.725616,81.110016 125.129257,69.220192 
	C85.465721,52.728844 43.926910,45.453979 1.000000,46.000000 
	C1.000000,40.645069 1.000000,35.290142 1.464357,29.509539 
	C8.875980,28.720566 15.819831,28.145987 22.771152,28.033640 
	C43.498749,27.698641 64.289299,27.199966 84.765617,31.067696 
	C103.419624,34.591209 122.207993,37.898682 140.433777,43.074051 
	C165.699646,50.248505 189.755020,60.704716 212.652435,73.819519 
	C235.875397,87.120789 257.620697,102.483467 277.053864,120.754967 
	C289.813110,132.751495 301.259644,146.193192 312.823578,159.399658 
	C327.394196,176.039810 338.921204,194.856216 349.434296,214.210403 
	C361.409180,236.255676 370.403625,259.558167 377.424805,283.683716 
	C385.144012,310.207764 389.515198,337.269287 390.828064,364.754517 
	C391.776642,384.613953 390.749542,404.459686 388.246643,424.289246 
	C385.230255,448.186737 379.844543,471.439362 372.285614,494.225494 
	C365.309113,515.255859 356.005951,535.253113 345.145020,554.576965 
	C332.349213,577.343445 317.412048,598.644226 299.698853,617.711792 
	C278.757507,640.254272 255.883682,660.722717 229.529236,677.068848 
	C203.094238,693.465027 175.498581,707.125671 145.815689,716.710999 
	C108.677750,728.703552 70.646187,734.213806 31.735174,733.910706 
	C21.485777,733.830933 11.244827,732.666443 0.999999,732.000000 
z"/>
<path fill="#040109" opacity="1.000000" stroke="none" 
	d="
M1921.000000,954.531372 
	C1802.408203,934.269531 1714.557617,871.003113 1658.491577,764.373474 
	C1640.070435,729.339111 1629.234497,691.717529 1623.783325,652.472656 
	C1620.610107,629.626526 1619.791748,606.653564 1621.308350,583.811707 
	C1624.803955,531.162170 1639.084839,481.417145 1664.742065,435.098694 
	C1685.797607,397.088196 1712.778198,363.930023 1746.055908,336.005554 
	C1791.815308,297.607483 1843.886841,272.057861 1902.491333,260.054565 
	C1908.354736,258.853638 1914.265259,257.882568 1920.576904,256.902405 
	C1921.000000,272.354218 1921.000000,287.708466 1920.596802,303.432312 
	C1919.366333,303.882568 1918.509644,303.851044 1917.716187,304.060150 
	C1882.700684,313.286346 1850.154907,327.869324 1820.370117,348.585052 
	C1797.863403,364.238678 1777.839722,382.646820 1760.226807,403.533081 
	C1742.244507,424.857544 1727.743164,448.488251 1716.275513,473.985229 
	C1701.190430,507.525513 1692.324097,542.683044 1690.233765,579.282959 
	C1689.024780,600.450134 1689.489380,621.723022 1692.803589,642.877075 
	C1697.697144,674.111450 1706.692627,703.992065 1720.621216,732.331665 
	C1738.952881,769.630371 1763.827637,801.957886 1795.395630,829.048340 
	C1832.141846,860.582581 1873.943848,882.382263 1921.000000,894.000000 
	C1921.000000,914.020874 1921.000000,934.041809 1921.000000,954.531372 
z"/>
<path fill="#D25100" opacity="1.000000" stroke="none" 
	d="
M0.999999,732.468628 
	C11.244827,732.666443 21.485777,733.830933 31.735174,733.910706 
	C70.646187,734.213806 108.677750,728.703552 145.815689,716.710999 
	C175.498581,707.125671 203.094238,693.465027 229.529236,677.068848 
	C255.883682,660.722717 278.757507,640.254272 299.698853,617.711792 
	C317.412048,598.644226 332.349213,577.343445 345.145020,554.576965 
	C356.005951,535.253113 365.309113,515.255859 372.285614,494.225494 
	C379.844543,471.439362 385.230255,448.186737 388.246643,424.289246 
	C390.749542,404.459686 391.776642,384.613953 390.828064,364.754517 
	C389.515198,337.269287 385.144012,310.207764 377.424805,283.683716 
	C370.403625,259.558167 361.409180,236.255676 349.434296,214.210403 
	C338.921204,194.856216 327.394196,176.039810 312.823578,159.399658 
	C301.259644,146.193192 289.813110,132.751495 277.053864,120.754967 
	C257.620697,102.483467 235.875397,87.120789 212.652435,73.819519 
	C189.755020,60.704716 165.699646,50.248505 140.433777,43.074051 
	C122.207993,37.898682 103.419624,34.591209 84.765617,31.067696 
	C64.289299,27.199966 43.498749,27.698641 22.771152,28.033640 
	C15.819831,28.145987 8.875980,28.720566 1.464357,29.041933 
	C1.000000,21.645748 1.000000,14.291496 1.000000,6.468622 
	C16.742563,6.663356 32.555485,6.611466 48.211803,8.151581 
	C74.056564,10.693933 99.512688,15.716282 124.483063,23.005358 
	C164.859070,34.791481 202.651672,52.211151 237.362061,75.939018 
	C250.809479,85.131584 263.688843,95.270775 276.094757,105.838356 
	C288.209839,116.158211 300.219604,126.837181 310.771301,138.696915 
	C323.789124,153.328522 335.853577,168.912567 347.266022,184.847076 
	C372.930298,220.680725 391.275909,260.227905 403.190613,302.579895 
	C408.426208,321.190338 412.306915,340.248016 415.630280,359.307068 
	C417.831726,371.932068 418.061798,384.912323 418.960754,397.748535 
	C419.505249,405.522919 420.147980,413.344116 419.868073,421.112640 
	C418.976929,445.842957 416.851044,470.414062 412.248810,494.835175 
	C404.487457,536.020020 390.607117,574.942688 370.875916,611.763733 
	C356.911682,637.822815 340.348694,662.171509 321.003235,684.661621 
	C302.653290,705.994507 282.366333,725.121521 260.228149,742.455688 
	C238.212662,759.693726 214.644333,774.391724 189.612091,786.679199 
	C161.329636,800.562012 131.714859,810.860901 101.024803,818.110657 
	C82.426384,822.504089 63.686882,825.872559 44.603691,827.007874 
	C30.392340,827.853333 16.160196,828.349365 1.468655,829.000488 
	C1.000000,796.979126 1.000000,764.958191 0.999999,732.468628 
z"/>
<path fill="#D35100" opacity="1.000000" stroke="none" 
	d="
M1.000000,46.468658 
	C43.926910,45.453979 85.465721,52.728844 125.129257,69.220192 
	C153.725616,81.110016 179.824692,97.247017 203.774765,117.060715 
	C226.190491,135.605072 245.166290,157.126953 261.273376,181.120667 
	C283.024811,213.522446 298.167328,248.879684 306.012085,287.235657 
	C309.828827,305.897034 311.696259,324.681030 312.201782,343.780975 
	C313.237488,382.913177 306.808624,420.597839 293.126343,457.137299 
	C280.930969,489.705841 263.748505,519.485840 241.293350,545.993225 
	C217.367722,574.236633 189.222244,597.568359 156.794693,615.648682 
	C128.480255,631.435669 98.361862,642.256042 66.679222,648.766235 
	C45.334381,653.152283 23.726871,654.871155 1.467495,654.035767 
	C1.000000,629.979126 1.000000,605.958191 1.000000,581.468628 
	C30.442699,581.214539 59.306988,577.359680 87.254372,567.946838 
	C120.257057,556.831543 149.681335,539.607239 175.532394,516.103699 
	C198.609772,495.122040 216.952927,470.660797 230.839386,442.894440 
	C243.989853,416.599670 252.130783,388.761475 255.196213,359.417267 
	C259.062744,322.404205 255.232117,286.270569 243.027069,251.174759 
	C232.052994,219.618652 215.475006,191.106339 192.945328,166.411819 
	C161.759552,132.229431 123.940453,108.285370 79.528702,94.793060 
	C54.178680,87.091713 28.338974,84.002144 1.468658,85.000313 
	C1.000000,72.312439 1.000000,59.624878 1.000000,46.468658 
z"/>
<path fill="#D25100" opacity="1.000000" stroke="none" 
	d="
M1623.690674,215.885590 
	C1614.837646,224.612732 1605.984619,233.339890 1596.719604,242.520706 
	C1595.494263,243.966431 1594.680908,244.958496 1593.867554,245.950577 
	C1588.936157,251.594742 1584.004639,257.238892 1578.686157,263.366058 
	C1577.519165,264.894562 1576.739258,265.940063 1575.959351,266.985565 
	C1570.317383,274.326447 1564.675293,281.667297 1558.676025,289.515411 
	C1557.268799,291.682129 1556.218750,293.341583 1555.168701,295.001007 
	C1547.717041,306.711578 1540.265625,318.422180 1532.496094,330.635742 
	C1531.893066,331.761078 1531.608276,332.383453 1531.323364,333.005829 
	C1517.032227,357.594391 1505.582275,383.485901 1495.666748,410.806610 
	C1495.223511,412.258514 1495.037964,413.103027 1494.852417,413.947540 
	C1489.147461,433.320129 1483.442505,452.692749 1477.521240,472.733948 
	C1477.203247,474.268433 1477.101440,475.134338 1476.999756,476.000214 
	C1476.208496,479.340607 1475.417236,482.681030 1474.441284,486.711121 
	C1474.069336,488.275360 1473.882202,489.149872 1473.695068,490.024384 
	C1471.477661,503.947266 1469.165527,517.855835 1467.062500,531.795898 
	C1462.553711,561.683289 1462.869141,591.799377 1463.041260,621.900452 
	C1463.053223,623.994141 1463.625732,626.084656 1463.987427,628.963135 
	C1464.115723,630.500061 1464.194214,631.250488 1464.272949,632.000854 
	C1465.005859,641.151550 1465.458618,650.335388 1466.536743,659.445190 
	C1468.200806,673.503540 1470.293091,687.511169 1472.567627,702.123108 
	C1473.167236,703.525330 1473.402588,704.344727 1473.638184,705.164185 
	C1473.686035,705.583801 1473.734009,706.003418 1473.876221,707.040039 
	C1474.174561,708.501160 1474.378784,709.345215 1474.582886,710.189270 
	C1478.130005,724.891174 1481.679077,739.592651 1485.220825,754.295837 
	C1485.527710,755.569946 1485.786743,756.855591 1486.025635,758.542480 
	C1482.972900,751.824463 1479.245850,744.910217 1477.080444,737.537354 
	C1469.138184,710.496094 1460.917480,683.492249 1454.393433,656.095276 
	C1450.428345,639.444641 1449.386597,622.097961 1447.030029,605.064148 
	C1443.238159,577.657654 1443.797974,550.074707 1444.152832,522.540283 
	C1444.310059,510.348480 1445.707886,498.121552 1447.305176,486.011139 
	C1449.889648,466.415802 1452.050659,446.671265 1456.299438,427.410797 
	C1462.600830,398.845337 1470.804077,370.740051 1481.477905,343.396729 
	C1508.378906,274.484222 1546.978760,213.237442 1600.563721,161.940750 
	C1656.759399,108.144989 1722.298462,71.170471 1798.689209,54.693722 
	C1814.120361,51.365379 1829.964478,49.702152 1845.703979,48.130215 
	C1859.200806,46.782261 1872.819092,46.187759 1886.386230,46.147797 
	C1897.615845,46.114716 1908.849487,47.377331 1920.540649,48.032936 
	C1921.000000,68.687561 1921.000000,89.375122 1921.000000,110.531342 
	C1907.328735,110.405388 1893.659912,109.433182 1879.985352,109.342690 
	C1870.099854,109.277267 1860.199829,110.287849 1850.320068,111.008942 
	C1845.772217,111.340874 1841.257812,112.128876 1836.039551,112.852905 
	C1834.489258,113.139023 1833.627563,113.282326 1832.765991,113.425644 
	C1822.387573,115.462463 1812.009033,117.499275 1800.984985,119.727966 
	C1799.518311,120.186790 1798.697266,120.453743 1797.876221,120.720703 
	C1788.749878,123.276978 1779.623413,125.833244 1769.896973,128.630035 
	C1768.506836,129.189133 1767.716919,129.507736 1766.927002,129.826324 
	C1764.427612,130.641876 1761.928345,131.457443 1758.844727,132.541595 
	C1757.494263,133.175049 1756.728027,133.539902 1755.961914,133.904755 
	C1747.439575,137.321106 1738.917358,140.737442 1729.812012,144.442261 
	C1728.482056,145.143448 1727.735229,145.556183 1726.988403,145.968933 
	C1722.192749,148.289169 1717.396973,150.609390 1712.014893,153.211700 
	C1710.209839,154.162857 1708.991333,154.831924 1707.772705,155.501007 
	C1704.033569,157.610550 1700.294434,159.720108 1696.021973,162.096024 
	C1694.925171,162.759979 1694.361450,163.157578 1693.797729,163.555145 
	C1690.361816,165.602127 1686.926025,167.649155 1682.980957,169.986542 
	C1681.922241,170.722229 1681.372681,171.167557 1680.823242,171.612946 
	C1676.696411,174.261307 1672.569580,176.909622 1667.963379,179.885712 
	C1666.945557,180.711975 1666.407227,181.210449 1665.868896,181.708923 
	C1658.021362,187.606689 1650.173706,193.504456 1641.849121,199.800049 
	C1640.396606,201.082016 1639.421143,201.966141 1638.445801,202.850281 
	C1634.721191,206.007324 1630.996582,209.164337 1626.820312,212.734070 
	C1625.476074,214.059738 1624.583374,214.972672 1623.690674,215.885590 
z"/>
<path fill="#ED5716" opacity="1.000000" stroke="none" 
	d="
M1921.000000,893.531372 
	C1873.943848,882.382263 1832.141846,860.582581 1795.395630,829.048340 
	C1763.827637,801.957886 1738.952881,769.630371 1720.621216,732.331665 
	C1706.692627,703.992065 1697.697144,674.111450 1692.803589,642.877075 
	C1689.489380,621.723022 1689.024780,600.450134 1690.233765,579.282959 
	C1692.324097,542.683044 1701.190430,507.525513 1716.275513,473.985229 
	C1727.743164,448.488251 1742.244507,424.857544 1760.226807,403.533081 
	C1777.839722,382.646820 1797.863403,364.238678 1820.370117,348.585052 
	C1850.154907,327.869324 1882.700684,313.286346 1917.716187,304.060150 
	C1918.509644,303.851044 1919.366333,303.882568 1920.596802,303.900940 
	C1921.000000,312.354218 1921.000000,320.708466 1921.000000,329.531342 
	C1902.508179,333.481659 1884.484253,338.530579 1867.236694,346.145721 
	C1801.921387,374.983795 1756.329468,422.707092 1731.267822,489.540070 
	C1726.153687,503.177795 1723.350342,517.716370 1719.936401,531.948853 
	C1715.411499,550.814758 1715.192627,570.141846 1716.259155,589.303772 
	C1717.013062,602.848145 1719.061768,616.544312 1722.438232,629.682922 
	C1746.621460,723.785767 1805.255737,785.330811 1898.267700,813.822510 
	C1905.420776,816.013611 1912.856567,817.281006 1920.580566,818.988892 
	C1921.000000,843.687561 1921.000000,868.375122 1921.000000,893.531372 
z"/>
<path fill="#030108" opacity="1.000000" stroke="none" 
	d="
M1493.041016,777.389771 
	C1494.207397,778.463135 1495.839844,779.738098 1496.557861,781.406616 
	C1505.964111,803.268250 1514.177979,825.716919 1524.798462,846.964905 
	C1540.913208,879.205017 1560.588379,909.372192 1584.263672,936.704895 
	C1594.497192,948.519226 1604.739136,960.425537 1615.979248,971.249451 
	C1644.526855,998.739441 1676.075806,1022.170349 1711.254883,1040.791870 
	C1742.262085,1057.205200 1774.770386,1069.105835 1808.850952,1077.041138 
	C1811.276245,1077.605835 1813.458862,1079.212402 1815.877197,1080.667236 
	C1813.958374,1081.000000 1811.916626,1081.000000 1809.437500,1081.000000 
	C1807.606567,1080.229858 1806.298584,1079.087280 1804.806885,1078.744385 
	C1770.154053,1070.778320 1737.323975,1057.977661 1706.163208,1040.996582 
	C1680.803223,1027.176514 1657.230713,1010.707153 1635.260254,991.884888 
	C1601.510620,962.971130 1572.703491,929.787598 1548.443115,892.627319 
	C1526.219971,858.587219 1508.347900,822.371338 1494.856201,784.011414 
	C1494.140381,781.976074 1493.667725,779.855225 1493.041016,777.389771 
z"/>
<path fill="#030109" opacity="1.000000" stroke="none" 
	d="
M1486.018555,760.166260 
	C1486.247559,760.214844 1486.450073,760.427063 1486.760254,760.837402 
	C1486.594238,760.782898 1486.302368,760.547729 1486.018555,760.166260 
z"/>
<path fill="#030109" opacity="1.000000" stroke="none" 
	d="
M1490.103394,770.285156 
	C1490.290649,770.499084 1490.547241,770.976807 1490.871338,771.717651 
	C1490.683472,771.503601 1490.427979,771.026306 1490.103394,770.285156 
z"/>
<path fill="#030108" opacity="1.000000" stroke="none" 
	d="
M1492.160156,776.177490 
	C1492.241943,776.205872 1492.467896,776.421692 1492.838867,776.823975 
	C1492.756104,776.796692 1492.529663,776.581482 1492.160156,776.177490 
z"/>
<path fill="#030109" opacity="1.000000" stroke="none" 
	d="
M1760.704834,203.850815 
	C1754.226196,207.542480 1747.445923,211.066650 1740.331543,214.670410 
	C1740.299561,213.819244 1740.343628,212.315811 1740.943115,212.045715 
	C1747.379395,209.146255 1753.903320,206.441452 1760.704834,203.850815 
z"/>
<path fill="#030109" opacity="1.000000" stroke="none" 
	d="
M1562.894287,752.282959 
	C1565.047241,755.731934 1567.018188,759.493164 1569.033447,763.613403 
	C1563.825317,761.435486 1561.926025,758.040955 1562.894287,752.282959 
z"/>
<path fill="#030109" opacity="1.000000" stroke="none" 
	d="
M1573.383057,381.046173 
	C1571.794067,384.895447 1569.863770,388.794861 1567.713867,392.951172 
	C1565.607300,388.607758 1567.889282,383.625702 1573.383057,381.046173 
z"/>
<path fill="#030109" opacity="1.000000" stroke="none" 
	d="
M1802.149292,966.402832 
	C1806.580444,967.523682 1811.160889,968.943481 1816.020996,970.613403 
	C1810.618896,972.888977 1806.329224,970.231445 1802.149292,966.402832 
z"/>
<path fill="#030109" opacity="1.000000" stroke="none" 
	d="
M1541.070312,695.193359 
	C1542.561035,698.645691 1543.840820,702.411133 1545.130859,706.563232 
	C1540.507324,704.335205 1539.919678,700.206604 1541.070312,695.193359 
z"/>
<path fill="#030109" opacity="1.000000" stroke="none" 
	d="
M1648.986450,281.128235 
	C1646.507202,284.131531 1643.627686,287.126129 1640.450317,290.300659 
	C1640.533325,284.692352 1642.885132,282.081970 1648.986450,281.128235 
z"/>
<path fill="#030109" opacity="1.000000" stroke="none" 
	d="
M1704.026367,917.442810 
	C1706.699097,918.816040 1709.425659,920.544189 1712.372070,922.555298 
	C1708.673462,922.983459 1705.443359,921.966736 1704.026367,917.442810 
z"/>
<path fill="#030109" opacity="1.000000" stroke="none" 
	d="
M1629.270142,852.063110 
	C1630.610107,852.984253 1631.772827,854.166809 1633.054077,855.641724 
	C1630.963623,855.690613 1628.244141,856.023987 1629.270142,852.063110 
z"/>
<path fill="#030109" opacity="1.000000" stroke="none" 
	d="
M1554.940430,734.243958 
	C1555.824097,735.366882 1556.530273,736.780090 1557.309448,738.530640 
	C1554.941406,738.371155 1553.650879,737.178833 1554.940430,734.243958 
z"/>
<path fill="#030109" opacity="1.000000" stroke="none" 
	d="
M1555.527832,294.941895 
	C1556.218750,293.341583 1557.268799,291.682129 1558.597046,289.837585 
	C1557.879150,291.395874 1556.883057,293.139282 1555.527832,294.941895 
z"/>
<path fill="#030109" opacity="1.000000" stroke="none" 
	d="
M1708.022217,155.706207 
	C1708.991333,154.831924 1710.209839,154.162857 1711.717041,153.412399 
	C1711.571167,155.363708 1711.092529,157.332153 1708.022217,155.706207 
z"/>
<path fill="#030109" opacity="1.000000" stroke="none" 
	d="
M1622.723389,309.084076 
	C1621.982788,310.430756 1620.863770,311.824280 1619.456299,313.399689 
	C1620.226807,312.098022 1621.285889,310.614471 1622.723389,309.084076 
z"/>
<path fill="#030109" opacity="1.000000" stroke="none" 
	d="
M1629.694092,301.074890 
	C1628.961670,302.422913 1627.853149,303.820526 1626.456055,305.399841 
	C1627.217651,304.095886 1628.267700,302.610199 1629.694092,301.074890 
z"/>
<path fill="#030109" opacity="1.000000" stroke="none" 
	d="
M1727.948486,221.253448 
	C1727.341431,221.964157 1726.490479,222.490799 1725.338379,223.060745 
	C1725.926392,222.425827 1726.815430,221.747589 1727.948486,221.253448 
z"/>
<path fill="#030109" opacity="1.000000" stroke="none" 
	d="
M1623.224487,845.078064 
	C1624.220825,845.684692 1625.063599,846.536743 1626.003906,847.675537 
	C1625.091431,847.082642 1624.081177,846.203125 1623.224487,845.078064 
z"/>
<path fill="#030109" opacity="1.000000" stroke="none" 
	d="
M1672.075439,893.209106 
	C1672.986816,893.575562 1673.927124,894.276733 1675.055176,895.205444 
	C1674.196777,894.803223 1673.150635,894.173523 1672.075439,893.209106 
z"/>
<path fill="#030109" opacity="1.000000" stroke="none" 
	d="
M1670.943481,261.263977 
	C1670.326904,262.250458 1669.466797,263.077271 1668.321777,264.001709 
	C1668.924561,263.101013 1669.812256,262.102631 1670.943481,261.263977 
z"/>
<path fill="#030109" opacity="1.000000" stroke="none" 
	d="
M1736.116455,937.190063 
	C1736.950317,937.303284 1737.864380,937.708313 1738.984253,938.336121 
	C1738.192261,938.199890 1737.194336,937.840820 1736.116455,937.190063 
z"/>
<path fill="#030109" opacity="1.000000" stroke="none" 
	d="
M1734.977783,217.316132 
	C1734.353882,218.003250 1733.500122,218.521439 1732.346680,219.084778 
	C1732.947388,218.469025 1733.847778,217.808121 1734.977783,217.316132 
z"/>
<path fill="#030109" opacity="1.000000" stroke="none" 
	d="
M1524.597168,552.148865 
	C1524.780029,553.217712 1524.712280,554.435791 1524.336914,555.860718 
	C1524.135010,554.811035 1524.240845,553.554565 1524.597168,552.148865 
z"/>
<path fill="#030109" opacity="1.000000" stroke="none" 
	d="
M1538.073486,684.137085 
	C1538.526245,684.713501 1538.816406,685.525391 1539.089355,686.669067 
	C1538.685059,686.124756 1538.297974,685.248657 1538.073486,684.137085 
z"/>
<path fill="#030109" opacity="1.000000" stroke="none" 
	d="
M1864.147705,982.302490 
	C1864.870605,982.090027 1865.740845,982.128845 1866.910889,982.303467 
	C1866.238770,982.477478 1865.266968,982.515625 1864.147705,982.302490 
z"/>
<path fill="#030109" opacity="1.000000" stroke="none" 
	d="
M1534.138672,668.096802 
	C1534.557373,668.692566 1534.803589,669.517395 1535.010254,670.671021 
	C1534.635742,670.108459 1534.301025,669.217102 1534.138672,668.096802 
z"/>
<path fill="#030109" opacity="1.000000" stroke="none" 
	d="
M1464.494873,631.863892 
	C1464.194214,631.250488 1464.115723,630.500061 1464.095459,629.374817 
	C1464.341431,629.908936 1464.529175,630.817871 1464.494873,631.863892 
z"/>
<path fill="#030109" opacity="1.000000" stroke="none" 
	d="
M1525.501953,612.135742 
	C1525.805908,612.748962 1525.887817,613.499573 1525.908936,614.625244 
	C1525.658569,614.091309 1525.469360,613.182190 1525.501953,612.135742 
z"/>
<path fill="#030109" opacity="1.000000" stroke="none" 
	d="
M1533.719971,487.135498 
	C1533.886597,487.868164 1533.802612,488.735901 1533.516357,489.864929 
	C1533.365845,489.174316 1533.417603,488.222443 1533.719971,487.135498 
z"/>
<path fill="#030109" opacity="1.000000" stroke="none" 
	d="
M1473.977417,489.900635 
	C1473.882202,489.149872 1474.069336,488.275360 1474.428345,487.113251 
	C1474.486694,487.809387 1474.373291,488.793152 1473.977417,489.900635 
z"/>
<path fill="#030109" opacity="1.000000" stroke="none" 
	d="
M1535.738770,478.138123 
	C1535.916016,478.869995 1535.839478,479.739838 1535.585327,480.888123 
	C1535.433472,480.203064 1535.459229,479.239563 1535.738770,478.138123 
z"/>
<path fill="#030109" opacity="1.000000" stroke="none" 
	d="
M1756.207275,134.046661 
	C1756.728027,133.539902 1757.494263,133.175049 1758.585205,132.777985 
	C1758.090942,133.226685 1757.271851,133.707611 1756.207275,134.046661 
z"/>
<path fill="#030109" opacity="1.000000" stroke="none" 
	d="
M1539.829346,463.125458 
	C1539.963745,463.867401 1539.838013,464.736053 1539.498535,465.859009 
	C1539.379517,465.159607 1539.474487,464.205872 1539.829346,463.125458 
z"/>
<path fill="#030109" opacity="1.000000" stroke="none" 
	d="
M1884.153931,985.357727 
	C1884.868652,985.125000 1885.737183,985.138367 1886.912109,985.269165 
	C1886.248169,985.459045 1885.277954,985.531433 1884.153931,985.357727 
z"/>
<path fill="#030109" opacity="1.000000" stroke="none" 
	d="
M1870.146484,983.320557 
	C1870.870850,983.116028 1871.741333,983.160950 1872.907471,983.351990 
	C1872.232788,983.522095 1871.262695,983.546082 1870.146484,983.320557 
z"/>
<path fill="#030109" opacity="1.000000" stroke="none" 
	d="
M1831.125732,975.189575 
	C1831.865601,975.057678 1832.732056,975.183716 1833.849976,975.525635 
	C1833.151733,975.643555 1832.202026,975.545532 1831.125732,975.189575 
z"/>
<path fill="#030109" opacity="1.000000" stroke="none" 
	d="
M1473.814453,704.928345 
	C1473.402588,704.344727 1473.167236,703.525330 1472.878296,702.385132 
	C1473.213501,702.940491 1473.602295,703.816528 1473.814453,704.928345 
z"/>
<path fill="#030109" opacity="1.000000" stroke="none" 
	d="
M1474.768311,709.962402 
	C1474.378784,709.345215 1474.174561,708.501160 1474.012451,707.328796 
	C1474.354126,707.912170 1474.653931,708.823914 1474.768311,709.962402 
z"/>
<path fill="#030109" opacity="1.000000" stroke="none" 
	d="
M1549.949707,721.212280 
	C1550.467773,721.724915 1550.845581,722.484497 1551.260498,723.569031 
	C1550.801514,723.082397 1550.305420,722.270813 1549.949707,721.212280 
z"/>
<path fill="#030109" opacity="1.000000" stroke="none" 
	d="
M1477.253052,475.867401 
	C1477.101440,475.134338 1477.203247,474.268433 1477.501953,473.137543 
	C1477.634888,473.826538 1477.570557,474.780579 1477.253052,475.867401 
z"/>
<path fill="#030109" opacity="1.000000" stroke="none" 
	d="
M1787.194702,960.995422 
	C1787.932739,960.954041 1788.764648,961.184875 1789.816040,961.657043 
	C1789.119873,961.688110 1788.204224,961.477844 1787.194702,960.995422 
z"/>
<path fill="#030109" opacity="1.000000" stroke="none" 
	d="
M1772.228027,954.786621 
	C1772.966553,954.813171 1773.779785,955.127747 1774.806396,955.691162 
	C1774.114014,955.651611 1773.208374,955.363159 1772.228027,954.786621 
z"/>
<path fill="#030109" opacity="1.000000" stroke="none" 
	d="
M1763.223389,950.841187 
	C1763.958252,950.860962 1764.770386,951.164185 1765.797852,951.713013 
	C1765.109009,951.680664 1764.204956,951.402649 1763.223389,950.841187 
z"/>
<path fill="#030109" opacity="1.000000" stroke="none" 
	d="
M1665.104980,887.270264 
	C1666.070679,887.702820 1667.110229,888.491760 1668.319824,889.564331 
	C1667.386108,889.107483 1666.282349,888.367065 1665.104980,887.270264 
z"/>
<path fill="#030109" opacity="1.000000" stroke="none" 
	d="
M1727.242676,146.099579 
	C1727.735229,145.556183 1728.482056,145.143448 1729.546387,144.653336 
	C1729.074829,145.127380 1728.285889,145.678802 1727.242676,146.099579 
z"/>
<path fill="#030109" opacity="1.000000" stroke="none" 
	d="
M1624.046387,215.845978 
	C1624.583374,214.972672 1625.476074,214.059738 1626.668213,213.029419 
	C1626.112549,213.876801 1625.257324,214.841568 1624.046387,215.845978 
z"/>
<path fill="#030109" opacity="1.000000" stroke="none" 
	d="
M1638.817139,202.822708 
	C1639.421143,201.966141 1640.396606,201.082016 1641.682739,200.089539 
	C1641.058350,200.919174 1640.123413,201.857162 1638.817139,202.822708 
z"/>
<path fill="#030109" opacity="1.000000" stroke="none" 
	d="
M1769.759399,199.907898 
	C1769.268799,200.454086 1768.523438,200.869339 1767.460938,201.364716 
	C1767.930786,200.888885 1768.717651,200.332916 1769.759399,199.907898 
z"/>
<path fill="#030109" opacity="1.000000" stroke="none" 
	d="
M1552.092896,427.217041 
	C1552.120972,427.957367 1551.869263,428.783966 1551.378052,429.830383 
	C1551.363403,429.134583 1551.588257,428.218933 1552.092896,427.217041 
z"/>
<path fill="#030109" opacity="1.000000" stroke="none" 
	d="
M1594.220947,245.887299 
	C1594.680908,244.958496 1595.494263,243.966431 1596.592529,242.820007 
	C1596.109619,243.718445 1595.341919,244.771255 1594.220947,245.887299 
z"/>
<path fill="#030109" opacity="1.000000" stroke="none" 
	d="
M1778.784058,195.956528 
	C1778.283447,196.492020 1777.530273,196.888855 1776.460449,197.365265 
	C1776.939697,196.902496 1777.735474,196.360184 1778.784058,195.956528 
z"/>
<path fill="#030109" opacity="1.000000" stroke="none" 
	d="
M1798.109497,120.889008 
	C1798.697266,120.453743 1799.518311,120.186790 1800.669922,119.943405 
	C1800.114502,120.330421 1799.228638,120.693871 1798.109497,120.889008 
z"/>
<path fill="#030109" opacity="1.000000" stroke="none" 
	d="
M1576.313599,266.907410 
	C1576.739258,265.940063 1577.519165,264.894562 1578.575439,263.666504 
	C1578.123901,264.599060 1577.395874,265.714172 1576.313599,266.907410 
z"/>
<path fill="#030109" opacity="1.000000" stroke="none" 
	d="
M1664.178467,267.187439 
	C1663.590942,268.068634 1662.629272,268.979156 1661.357422,270.007355 
	C1661.966187,269.155609 1662.885254,268.186188 1664.178467,267.187439 
z"/>
<path fill="#030109" opacity="1.000000" stroke="none" 
	d="
M1832.983398,113.629173 
	C1833.627563,113.282326 1834.489258,113.139023 1835.675293,113.059158 
	C1835.066772,113.359314 1834.133667,113.596016 1832.983398,113.629173 
z"/>
<path fill="#030109" opacity="1.000000" stroke="none" 
	d="
M1791.790771,190.953949 
	C1791.273682,191.464172 1790.510498,191.833084 1789.422852,192.238251 
	C1789.913818,191.787216 1790.729370,191.299927 1791.790771,190.953949 
z"/>
<path fill="#030109" opacity="1.000000" stroke="none" 
	d="
M1814.870361,183.105499 
	C1814.329590,183.600937 1813.546021,183.933670 1812.438599,184.296936 
	C1812.952393,183.865906 1813.790161,183.404358 1814.870361,183.105499 
z"/>
<path fill="#030109" opacity="1.000000" stroke="none" 
	d="
M1821.854858,181.060822 
	C1821.281982,181.519379 1820.472534,181.817337 1819.330811,182.101532 
	C1819.871948,181.691925 1820.744995,181.296066 1821.854858,181.060822 
z"/>
<path fill="#030109" opacity="1.000000" stroke="none" 
	d="
M1885.008179,168.396332 
	C1884.363892,168.734604 1883.505615,168.866882 1882.323730,168.942169 
	C1882.931396,168.653564 1883.862793,168.421951 1885.008179,168.396332 
z"/>
<path fill="#030109" opacity="1.000000" stroke="none" 
	d="
M1767.165771,129.980103 
	C1767.716919,129.507736 1768.506836,129.189133 1769.624634,128.867432 
	C1769.103149,129.287521 1768.253906,129.710693 1767.165771,129.980103 
z"/>
<path fill="#030109" opacity="1.000000" stroke="none" 
	d="
M1918.868042,165.558441 
	C1918.249512,165.846771 1917.497925,165.907852 1916.372925,165.905762 
	C1916.911255,165.672150 1917.823242,165.501678 1918.868042,165.558441 
z"/>
<path fill="#030109" opacity="1.000000" stroke="none" 
	d="
M1495.115234,413.838623 
	C1495.037964,413.103027 1495.223511,412.258514 1495.640869,411.182800 
	C1495.707886,411.877655 1495.543091,412.803711 1495.115234,413.838623 
z"/>
<path fill="#030109" opacity="1.000000" stroke="none" 
	d="
M1729.201660,933.224609 
	C1730.032227,933.388977 1731.037964,933.853760 1732.246826,934.587280 
	C1731.425415,934.412292 1730.401001,933.968689 1729.201660,933.224609 
z"/>
<path fill="#030109" opacity="1.000000" stroke="none" 
	d="
M1666.083008,181.825653 
	C1666.407227,181.210449 1666.945557,180.711975 1667.757812,180.156372 
	C1667.453369,180.713638 1666.875244,181.328003 1666.083008,181.825653 
z"/>
<path fill="#030109" opacity="1.000000" stroke="none" 
	d="
M1681.028564,171.744537 
	C1681.372681,171.167557 1681.922241,170.722229 1682.736328,170.231110 
	C1682.411743,170.748962 1681.822754,171.312576 1681.028564,171.744537 
z"/>
<path fill="#030109" opacity="1.000000" stroke="none" 
	d="
M1718.043579,926.448120 
	C1718.622070,926.497437 1719.245728,926.807617 1720.037354,927.323975 
	C1719.499878,927.256409 1718.794312,926.982666 1718.043579,926.448120 
z"/>
<path fill="#030109" opacity="1.000000" stroke="none" 
	d="
M1697.017212,912.353699 
	C1697.602783,912.440430 1698.233032,912.793091 1699.018555,913.374023 
	C1698.469849,913.274658 1697.765869,912.947144 1697.017212,912.353699 
z"/>
<path fill="#030109" opacity="1.000000" stroke="none" 
	d="
M1690.029907,907.303101 
	C1690.615723,907.401978 1691.242432,907.770020 1692.021851,908.370239 
	C1691.473267,908.259033 1690.772095,907.915649 1690.029907,907.303101 
z"/>
<path fill="#030109" opacity="1.000000" stroke="none" 
	d="
M1681.029785,900.293640 
	C1681.617554,900.416870 1682.243530,900.808167 1682.998657,901.449829 
	C1682.441162,901.320618 1681.754639,900.941162 1681.029785,900.293640 
z"/>
<path fill="#030109" opacity="1.000000" stroke="none" 
	d="
M1693.996338,163.696121 
	C1694.361450,163.157578 1694.925171,162.759979 1695.746094,162.315918 
	C1695.400513,162.791992 1694.797729,163.314529 1693.996338,163.696121 
z"/>
<path fill="#030109" opacity="1.000000" stroke="none" 
	d="
M1575.344482,775.984375 
	C1575.875488,776.356079 1576.260010,776.923279 1576.684570,777.746826 
	C1576.215698,777.395447 1575.706787,776.787659 1575.344482,775.984375 
z"/>
<path fill="#030109" opacity="1.000000" stroke="none" 
	d="
M1606.230713,824.062134 
	C1606.860840,824.379944 1607.369873,824.914734 1607.949463,825.721191 
	C1607.383179,825.421631 1606.746460,824.850342 1606.230713,824.062134 
z"/>
<path fill="#030109" opacity="1.000000" stroke="none" 
	d="
M1559.223633,410.225037 
	C1559.182373,410.987518 1558.864014,411.820374 1558.296143,412.877106 
	C1558.346680,412.165771 1558.646729,411.230591 1559.223633,410.225037 
z"/>
<path fill="#030109" opacity="1.000000" stroke="none" 
	d="
M1563.227783,401.226501 
	C1563.185059,401.988861 1562.865356,402.821045 1562.296265,403.877136 
	C1562.348022,403.166138 1562.649414,402.231232 1563.227783,401.226501 
z"/>
<path fill="#030109" opacity="1.000000" stroke="none" 
	d="
M1526.662231,529.167419 
	C1526.875122,530.013550 1526.842651,531.026978 1526.657959,532.392212 
	C1526.476318,531.607544 1526.446655,530.471130 1526.662231,529.167419 
z"/>
<path fill="#030109" opacity="1.000000" stroke="none" 
	d="
M1577.778320,373.203857 
	C1577.613403,374.036621 1577.147217,375.044891 1576.413086,376.258881 
	C1576.589233,375.436188 1577.033081,374.407745 1577.778320,373.203857 
z"/>
<path fill="#030109" opacity="1.000000" stroke="none" 
	d="
M1581.778198,366.203827 
	C1581.613403,367.036591 1581.147095,368.044830 1580.413086,369.258850 
	C1580.589233,368.436157 1581.032959,367.407745 1581.778198,366.203827 
z"/>
<path fill="#030109" opacity="1.000000" stroke="none" 
	d="
M1526.345337,621.547485 
	C1526.674805,622.251526 1526.843384,623.247070 1526.959717,624.621277 
	C1526.666504,623.946289 1526.425415,622.892639 1526.345337,621.547485 
z"/>
<path fill="#030109" opacity="1.000000" stroke="none" 
	d="
M1592.575684,349.042786 
	C1592.517944,349.623657 1592.198242,350.248413 1591.663696,351.035309 
	C1591.736938,350.493835 1592.025269,349.790253 1592.575684,349.042786 
z"/>
<path fill="#030109" opacity="1.000000" stroke="none" 
	d="
M1527.345215,629.547485 
	C1527.674683,630.251526 1527.843262,631.247131 1527.959717,632.621277 
	C1527.666382,631.946289 1527.425415,630.892639 1527.345215,629.547485 
z"/>
<path fill="#030109" opacity="1.000000" stroke="none" 
	d="
M1531.575439,332.957672 
	C1531.608276,332.383453 1531.893066,331.761078 1532.376953,330.973572 
	C1532.326416,331.508820 1532.076904,332.209167 1531.575439,332.957672 
z"/>
<path fill="#030109" opacity="1.000000" stroke="none" 
	d="
M1609.759399,325.047302 
	C1609.642212,325.634308 1609.252197,326.257294 1608.620605,327.023621 
	C1608.748291,326.472412 1609.117432,325.777863 1609.759399,325.047302 
z"/>
<path fill="#030109" opacity="1.000000" stroke="none" 
	d="
M1684.908569,250.174225 
	C1684.596802,250.806030 1684.068359,251.323807 1683.264160,251.903320 
	C1683.556274,251.330093 1684.124023,250.695160 1684.908569,250.174225 
z"/>
<path fill="#030109" opacity="1.000000" stroke="none" 
	d="
M1558.960205,743.175293 
	C1559.469238,743.665955 1559.892334,744.434387 1560.407959,745.525757 
	C1559.958496,745.050171 1559.416382,744.251587 1558.960205,743.175293 
z"/>
<path fill="#030109" opacity="1.000000" stroke="none" 
	d="
M1706.974609,234.285446 
	C1706.628052,234.887283 1706.072266,235.355743 1705.244263,235.868652 
	C1705.569946,235.326080 1706.167725,234.739075 1706.974609,234.285446 
z"/>
<path fill="#030109" opacity="1.000000" stroke="none" 
	d="
M1603.281982,820.027344 
	C1603.881714,820.373901 1604.348633,820.929810 1604.864502,821.756714 
	C1604.325439,821.430664 1603.737305,820.833618 1603.281982,820.027344 
z"/>
<path fill="#030109" opacity="1.000000" stroke="none" 
	d="
M1718.000366,227.325470 
	C1717.645508,227.901855 1717.088379,228.337250 1716.265381,228.805008 
	C1716.599121,228.286423 1717.198486,227.735458 1718.000366,227.325470 
z"/>
<path fill="#030109" opacity="1.000000" stroke="none" 
	d="
M1556.142334,417.207947 
	C1556.220703,417.680450 1556.057861,418.226837 1555.711914,418.992798 
	C1555.652832,418.568848 1555.777100,417.925323 1556.142334,417.207947 
z"/>
</svg>