<svg version="1.1" id="Layer_1" xmlns="http://www.w3.org/2000/svg" xmlns:xlink="http://www.w3.org/1999/xlink" x="0px" y="0px"
	 width="100%" viewBox="0 0 1920 1080" enable-background="new 0 0 1920 1080" xml:space="preserve">
<path fill="#000000" opacity="1.000000" stroke="none" 
	d="
M1403.000000,1081.000000 
	C935.333435,1081.000000 468.166840,1081.000000 1.000188,1081.000000 
	C1.000125,721.000122 1.000125,361.000305 1.000063,1.000333 
	C640.999756,1.000222 1280.999512,1.000222 1920.999512,1.000111 
	C1920.999634,360.999664 1920.999634,720.999329 1920.999756,1080.999512 
	C1748.500000,1081.000000 1576.000000,1081.000000 1403.000000,1081.000000 
M1642.638794,673.010315 
	C1636.950439,676.473755 1631.026733,679.607239 1625.619385,683.464783 
	C1611.560913,693.493652 1596.121948,699.958069 1579.112427,702.836853 
	C1575.184326,703.501587 1571.372070,705.279846 1567.452271,705.478638 
	C1558.326294,705.941345 1554.950073,710.893738 1553.722046,719.416626 
	C1550.227417,743.673218 1541.242920,765.819824 1526.654297,785.624817 
	C1524.785034,788.162292 1523.502075,791.133057 1521.622070,793.661072 
	C1519.936768,795.927307 1520.254883,797.628052 1521.691650,799.905823 
	C1528.796753,811.171143 1535.794556,822.506836 1542.637085,833.933472 
	C1544.227051,836.588745 1545.421021,839.605347 1546.182129,842.611389 
	C1549.448975,855.514160 1552.562866,868.457397 1555.546387,881.428711 
	C1556.190186,884.227905 1557.333496,885.554382 1560.270142,886.205444 
	C1572.776978,888.977966 1585.248535,891.931946 1597.654297,895.124817 
	C1601.445068,896.100525 1605.228882,897.638916 1608.594727,899.631287 
	C1619.768677,906.245605 1630.798340,913.108887 1641.770264,920.055542 
	C1644.236450,921.617065 1646.025513,921.548462 1648.455933,920.008240 
	C1659.003296,913.324402 1669.574829,906.664429 1680.362671,900.382141 
	C1684.446411,898.003906 1689.004883,896.172241 1693.576660,894.953308 
	C1705.470825,891.782410 1717.453125,888.907227 1729.487671,886.320679 
	C1732.902710,885.586670 1734.120605,883.953979 1734.802612,880.882568 
	C1736.749756,872.112000 1739.238647,863.450806 1740.903198,854.631226 
	C1743.035645,843.333557 1747.166626,833.067200 1753.727783,823.584229 
	C1758.930786,816.064392 1763.299561,807.972412 1768.276978,800.288818 
	C1769.982666,797.655579 1769.859741,795.730713 1768.218628,793.124207 
	C1761.122437,781.853577 1754.178833,770.484558 1747.353638,759.047485 
	C1745.849976,756.527649 1744.710815,753.670776 1743.995361,750.820618 
	C1740.794922,738.072510 1737.705444,725.293884 1734.817017,712.472046 
	C1734.091919,709.253235 1732.584839,707.766357 1729.401611,707.094543 
	C1722.078247,705.549133 1714.884766,703.351196 1707.533325,701.984314 
	C1693.263550,699.331116 1680.185425,694.139587 1668.264648,685.756958 
	C1661.876587,681.265076 1655.011841,677.435242 1648.238647,673.520264 
	C1646.872925,672.730774 1644.950684,672.904175 1642.638794,673.010315 
M1727.977295,586.523193 
	C1733.090820,591.998047 1738.204346,597.472839 1743.583496,603.231995 
	C1752.715576,593.446960 1761.871216,584.010925 1770.558472,574.161743 
	C1774.576660,569.606018 1778.610474,566.843140 1785.016968,567.910767 
	C1789.583984,568.671814 1794.320679,568.524475 1798.983887,568.573181 
	C1807.581909,568.662964 1816.181519,568.598755 1823.794678,568.598755 
	C1823.794678,554.166382 1823.669922,539.531616 1823.923950,524.903381 
	C1823.963867,522.600220 1825.145874,519.745178 1826.777466,518.137817 
	C1834.965698,510.072327 1843.489746,502.348541 1851.870483,494.477478 
	C1854.228394,492.262939 1856.500122,489.956543 1858.874023,487.630859 
	C1847.855957,477.361969 1837.161743,467.575958 1826.746826,457.501160 
	C1825.113892,455.921417 1823.915161,453.023804 1823.935303,450.748108 
	C1824.045166,438.254303 1824.607788,425.764740 1824.987549,413.272858 
	C1825.056030,411.020508 1824.997192,408.764282 1824.997192,407.685974 
	C1809.895020,407.685974 1795.431641,407.808502 1780.974731,407.561005 
	C1778.661987,407.521393 1775.837891,406.386078 1774.179199,404.791199 
	C1768.780640,399.600891 1763.823364,393.952515 1758.676270,388.499298 
	C1753.704468,383.231812 1748.707886,377.987823 1743.554810,372.556976 
	C1733.194214,383.574890 1723.343994,394.202118 1713.264038,404.606720 
	C1711.743896,406.175842 1709.140869,407.597290 1707.057129,407.572083 
	C1694.063965,407.414795 1681.076050,406.818207 1668.085815,406.389648 
	C1666.156128,406.325958 1664.222656,406.380798 1663.249512,406.380798 
	C1663.249512,420.182037 1662.826904,433.505554 1663.441895,446.781036 
	C1663.717041,452.722839 1662.153809,456.568085 1657.692627,460.437256 
	C1647.679688,469.121368 1638.205078,478.426331 1628.192505,487.776215 
	C1639.293457,498.180908 1650.063721,508.093079 1660.551147,518.296143 
	C1662.180542,519.881165 1663.344482,522.805908 1663.314453,525.092651 
	C1663.143677,538.085938 1662.538330,551.073364 1662.099976,564.063538 
	C1662.041382,565.799622 1662.091797,567.539429 1662.091797,569.208191 
	C1663.125732,569.301514 1663.458618,569.367981 1663.788574,569.356140 
	C1673.946655,568.993469 1684.196533,569.344543 1694.238403,568.064880 
	C1705.856812,566.584290 1714.953369,569.148193 1721.410278,579.399231 
	C1722.979980,581.891296 1725.440430,583.822266 1727.977295,586.523193 
M315.152100,631.375977 
	C310.407654,628.715698 305.663239,626.055420 300.635040,623.236023 
	C305.039551,615.139954 309.215759,607.463623 313.647339,599.317810 
	C304.437164,597.979797 295.934418,596.744568 286.968781,595.442078 
	C288.099030,586.536194 289.194885,577.901428 290.370667,568.636963 
	C281.211060,570.728577 272.867798,572.633789 264.138641,574.627136 
	C261.976562,565.654846 259.920563,557.122681 257.746185,548.099243 
	C250.169281,553.291199 242.930710,558.251343 235.342606,563.451050 
	C230.228043,555.999390 225.287918,548.801880 219.983597,541.073792 
	C214.561783,548.917358 209.605820,556.086975 204.543930,563.409790 
	C196.893417,558.185303 189.711685,553.280945 182.169144,548.130188 
	C179.945343,557.333984 177.884155,565.864746 175.766068,574.631104 
	C166.978638,572.625366 158.635147,570.720947 149.546844,568.646545 
	C150.740051,578.065430 151.831131,586.678101 152.942932,595.454407 
	C143.871567,596.771362 135.410538,597.999756 126.302811,599.321960 
	C130.804749,607.633240 134.967056,615.317566 139.258316,623.239868 
	C131.303894,627.733948 123.723137,632.016907 115.766685,636.512146 
	C122.895493,642.562805 129.570770,648.228455 136.408813,654.032349 
	C130.640274,661.092346 125.195694,667.755859 119.335701,674.927795 
	C128.099640,677.991699 136.319458,680.865356 144.831619,683.841248 
	C142.006882,692.479553 139.347000,700.613708 136.601074,709.010986 
	C145.815628,709.010986 154.409988,709.010986 163.444412,709.010986 
	C163.923721,717.734131 164.395584,726.321533 164.906250,735.615295 
	C173.495193,731.880554 181.476990,728.409790 189.655411,724.853516 
	C193.390686,733.196411 196.948517,741.142944 201.087234,750.386963 
	C207.887619,743.374878 213.963699,737.109680 220.908859,729.948303 
	C227.098007,736.500854 232.999893,742.749207 239.287704,749.406189 
	C243.046692,741.003479 246.614212,733.028687 250.284042,724.825317 
	C258.560150,728.441101 266.520050,731.918823 275.018158,735.631592 
	C275.544952,726.178223 276.022705,717.605225 276.501465,709.013916 
	C285.623871,709.013916 294.199371,709.013916 303.338135,709.013916 
	C300.529907,700.422241 297.836304,692.181335 295.091095,683.782532 
	C303.884369,680.743835 311.996429,677.940491 320.631042,674.956604 
	C314.669678,667.660217 309.145996,660.899536 303.487701,653.974060 
	C310.602142,647.979553 317.260620,642.369263 324.226410,636.500061 
	C320.987885,634.689026 318.379028,633.230042 315.152100,631.375977 
M431.549377,254.008148 
	C412.404602,245.073654 393.209015,236.244598 374.175537,227.078995 
	C371.629059,225.852753 369.140045,223.288864 367.915527,220.727249 
	C357.442535,198.818253 347.271606,176.764923 337.001282,154.758987 
	C332.899567,145.970306 328.775269,137.192154 324.280548,127.596405 
	C323.122589,130.058350 322.351257,131.685181 321.590820,133.317108 
	C307.961365,162.566406 294.395844,191.845978 280.590271,221.011902 
	C279.442505,223.436676 277.025208,225.816132 274.603241,226.991409 
	C259.638885,234.253021 244.500931,241.156631 229.426773,248.192245 
	C213.648590,255.556458 197.877258,262.935364 181.345459,270.661896 
	C183.498642,271.739807 184.923416,272.496429 186.383392,273.177582 
	C215.780090,286.892578 245.210129,300.537109 274.526886,314.420807 
	C276.953491,315.569977 279.375244,317.969299 280.522125,320.392273 
	C294.470093,349.859161 308.176025,379.440552 321.956116,408.986938 
	C322.604401,410.377014 323.357910,411.717987 324.354034,413.646423 
	C325.526459,411.202911 326.330902,409.565277 327.102509,407.912354 
	C340.681915,378.823273 354.189148,349.699951 367.951691,320.697815 
	C369.168243,318.134125 371.661926,315.548950 374.210480,314.340820 
	C403.521881,300.446228 432.959503,286.817810 462.360016,273.111115 
	C463.823212,272.428986 465.254669,271.678741 467.251465,270.686768 
	C455.120087,265.006134 443.682343,259.650299 431.549377,254.008148 
M1545.772827,256.762787 
	C1551.084595,257.205231 1556.389526,257.801361 1561.710449,258.032623 
	C1564.909790,258.171661 1565.992310,259.495972 1566.077148,262.625336 
	C1566.203369,267.279785 1566.761841,271.925293 1567.209839,276.567566 
	C1567.665771,281.291718 1568.210693,286.007294 1568.763428,291.164185 
	C1577.748779,286.950989 1586.103638,283.213684 1594.275024,279.111206 
	C1597.451660,277.516327 1599.165771,277.918793 1601.152710,280.920227 
	C1606.286621,288.675354 1611.778687,296.193176 1617.418945,304.220276 
	C1622.871704,296.454712 1628.232666,289.254150 1633.084473,281.725525 
	C1635.476196,278.014679 1637.539429,277.483185 1641.465698,279.526184 
	C1649.341797,283.624298 1657.521484,287.138519 1666.148926,291.160950 
	C1667.065552,281.631866 1668.231567,272.885223 1668.621460,264.104126 
	C1668.832031,259.360596 1670.500732,258.033264 1675.101196,257.842712 
	C1683.814575,257.481781 1692.495483,256.337250 1701.854126,255.455688 
	C1697.119263,245.068954 1692.727173,235.434067 1688.194702,225.491455 
	C1697.175537,219.119766 1705.896973,212.932129 1714.972412,206.493271 
	C1705.671997,199.988113 1696.973511,193.903992 1688.196777,187.765167 
	C1692.775635,177.689194 1697.140869,168.083359 1701.806519,157.816513 
	C1690.419189,156.710281 1679.896240,155.688019 1669.270874,154.655807 
	C1668.205200,143.703674 1667.185303,133.222382 1666.106323,122.133316 
	C1655.646118,126.977028 1646.058105,131.416901 1636.331299,135.921021 
	C1629.929932,126.824417 1623.822632,118.145653 1617.423584,109.052391 
	C1610.929321,118.256775 1604.729980,127.043068 1598.454956,135.936569 
	C1588.415649,131.269608 1578.839966,126.818207 1568.635376,122.074471 
	C1567.713989,131.982910 1566.671265,141.048065 1566.125610,150.143051 
	C1565.912964,153.688248 1564.930298,154.966385 1561.238281,155.194519 
	C1551.977539,155.766724 1542.750000,156.873428 1532.937378,157.820999 
	C1536.694580,165.978165 1540.273193,173.448471 1543.590332,181.033112 
	C1546.973022,188.767212 1547.956543,186.779465 1540.777954,191.865082 
	C1533.950317,196.702072 1527.058838,201.448990 1519.817139,206.499359 
	C1527.805298,212.147293 1535.033081,217.498138 1542.527832,222.444534 
	C1545.765015,224.581085 1546.649658,226.428574 1544.739258,230.058838 
	C1541.565918,236.088821 1538.896240,242.384995 1536.052124,248.586349 
	C1535.062378,250.744843 1534.184204,252.954544 1533.113403,255.474258 
	C1537.593872,255.926437 1541.228638,256.293243 1545.772827,256.762787 
z"/>
<path fill="#D35100" opacity="1.000000" stroke="none" 
	d="
M1642.961914,672.822021 
	C1644.950684,672.904175 1646.872925,672.730774 1648.238647,673.520264 
	C1655.011841,677.435242 1661.876587,681.265076 1668.264648,685.756958 
	C1680.185425,694.139587 1693.263550,699.331116 1707.533325,701.984314 
	C1714.884766,703.351196 1722.078247,705.549133 1729.401611,707.094543 
	C1732.584839,707.766357 1734.091919,709.253235 1734.817017,712.472046 
	C1737.705444,725.293884 1740.794922,738.072510 1743.995361,750.820618 
	C1744.710815,753.670776 1745.849976,756.527649 1747.353638,759.047485 
	C1754.178833,770.484558 1761.122437,781.853577 1768.218628,793.124207 
	C1769.859741,795.730713 1769.982666,797.655579 1768.276978,800.288818 
	C1763.299561,807.972412 1758.930786,816.064392 1753.727783,823.584229 
	C1747.166626,833.067200 1743.035645,843.333557 1740.903198,854.631226 
	C1739.238647,863.450806 1736.749756,872.112000 1734.802612,880.882568 
	C1734.120605,883.953979 1732.902710,885.586670 1729.487671,886.320679 
	C1717.453125,888.907227 1705.470825,891.782410 1693.576660,894.953308 
	C1689.004883,896.172241 1684.446411,898.003906 1680.362671,900.382141 
	C1669.574829,906.664429 1659.003296,913.324402 1648.455933,920.008240 
	C1646.025513,921.548462 1644.236450,921.617065 1641.770264,920.055542 
	C1630.798340,913.108887 1619.768677,906.245605 1608.594727,899.631287 
	C1605.228882,897.638916 1601.445068,896.100525 1597.654297,895.124817 
	C1585.248535,891.931946 1572.776978,888.977966 1560.270142,886.205444 
	C1557.333496,885.554382 1556.190186,884.227905 1555.546387,881.428711 
	C1552.562866,868.457397 1549.448975,855.514160 1546.182129,842.611389 
	C1545.421021,839.605347 1544.227051,836.588745 1542.637085,833.933472 
	C1535.794556,822.506836 1528.796753,811.171143 1521.691650,799.905823 
	C1520.254883,797.628052 1519.936768,795.927307 1521.622070,793.661072 
	C1523.502075,791.133057 1524.785034,788.162292 1526.654297,785.624817 
	C1541.242920,765.819824 1550.227417,743.673218 1553.722046,719.416626 
	C1554.950073,710.893738 1558.326294,705.941345 1567.452271,705.478638 
	C1571.372070,705.279846 1575.184326,703.501587 1579.112427,702.836853 
	C1596.121948,699.958069 1611.560913,693.493652 1625.619385,683.464783 
	C1631.026733,679.607239 1636.950439,676.473755 1642.961914,672.822021 
z"/>
<path fill="#FE9B31" opacity="1.000000" stroke="none" 
	d="
M1727.734253,586.267212 
	C1725.440430,583.822266 1722.979980,581.891296 1721.410278,579.399231 
	C1714.953369,569.148193 1705.856812,566.584290 1694.238403,568.064880 
	C1684.196533,569.344543 1673.946655,568.993469 1663.788574,569.356140 
	C1663.458618,569.367981 1663.125732,569.301514 1662.091797,569.208191 
	C1662.091797,567.539429 1662.041382,565.799622 1662.099976,564.063538 
	C1662.538330,551.073364 1663.143677,538.085938 1663.314453,525.092651 
	C1663.344482,522.805908 1662.180542,519.881165 1660.551147,518.296143 
	C1650.063721,508.093079 1639.293457,498.180908 1628.192505,487.776215 
	C1638.205078,478.426331 1647.679688,469.121368 1657.692627,460.437256 
	C1662.153809,456.568085 1663.717041,452.722839 1663.441895,446.781036 
	C1662.826904,433.505554 1663.249512,420.182037 1663.249512,406.380798 
	C1664.222656,406.380798 1666.156128,406.325958 1668.085815,406.389648 
	C1681.076050,406.818207 1694.063965,407.414795 1707.057129,407.572083 
	C1709.140869,407.597290 1711.743896,406.175842 1713.264038,404.606720 
	C1723.343994,394.202118 1733.194214,383.574890 1743.554810,372.556976 
	C1748.707886,377.987823 1753.704468,383.231812 1758.676270,388.499298 
	C1763.823364,393.952515 1768.780640,399.600891 1774.179199,404.791199 
	C1775.837891,406.386078 1778.661987,407.521393 1780.974731,407.561005 
	C1795.431641,407.808502 1809.895020,407.685974 1824.997192,407.685974 
	C1824.997192,408.764282 1825.056030,411.020508 1824.987549,413.272858 
	C1824.607788,425.764740 1824.045166,438.254303 1823.935303,450.748108 
	C1823.915161,453.023804 1825.113892,455.921417 1826.746826,457.501160 
	C1837.161743,467.575958 1847.855957,477.361969 1858.874023,487.630859 
	C1856.500122,489.956543 1854.228394,492.262939 1851.870483,494.477478 
	C1843.489746,502.348541 1834.965698,510.072327 1826.777466,518.137817 
	C1825.145874,519.745178 1823.963867,522.600220 1823.923950,524.903381 
	C1823.669922,539.531616 1823.794678,554.166382 1823.794678,568.598755 
	C1816.181519,568.598755 1807.581909,568.662964 1798.983887,568.573181 
	C1794.320679,568.524475 1789.583984,568.671814 1785.016968,567.910767 
	C1778.610474,566.843140 1774.576660,569.606018 1770.558472,574.161743 
	C1761.871216,584.010925 1752.715576,593.446960 1743.583496,603.231995 
	C1738.204346,597.472839 1733.090820,591.998047 1727.734253,586.267212 
z"/>
<path fill="#ED5716" opacity="1.000000" stroke="none" 
	d="
M315.461121,631.573547 
	C318.379028,633.230042 320.987885,634.689026 324.226410,636.500061 
	C317.260620,642.369263 310.602142,647.979553 303.487701,653.974060 
	C309.145996,660.899536 314.669678,667.660217 320.631042,674.956604 
	C311.996429,677.940491 303.884369,680.743835 295.091095,683.782532 
	C297.836304,692.181335 300.529907,700.422241 303.338135,709.013916 
	C294.199371,709.013916 285.623871,709.013916 276.501465,709.013916 
	C276.022705,717.605225 275.544952,726.178223 275.018158,735.631592 
	C266.520050,731.918823 258.560150,728.441101 250.284042,724.825317 
	C246.614212,733.028687 243.046692,741.003479 239.287704,749.406189 
	C232.999893,742.749207 227.098007,736.500854 220.908859,729.948303 
	C213.963699,737.109680 207.887619,743.374878 201.087234,750.386963 
	C196.948517,741.142944 193.390686,733.196411 189.655411,724.853516 
	C181.476990,728.409790 173.495193,731.880554 164.906250,735.615295 
	C164.395584,726.321533 163.923721,717.734131 163.444412,709.010986 
	C154.409988,709.010986 145.815628,709.010986 136.601074,709.010986 
	C139.347000,700.613708 142.006882,692.479553 144.831619,683.841248 
	C136.319458,680.865356 128.099640,677.991699 119.335701,674.927795 
	C125.195694,667.755859 130.640274,661.092346 136.408813,654.032349 
	C129.570770,648.228455 122.895493,642.562805 115.766685,636.512146 
	C123.723137,632.016907 131.303894,627.733948 139.258316,623.239868 
	C134.967056,615.317566 130.804749,607.633240 126.302811,599.321960 
	C135.410538,597.999756 143.871567,596.771362 152.942932,595.454407 
	C151.831131,586.678101 150.740051,578.065430 149.546844,568.646545 
	C158.635147,570.720947 166.978638,572.625366 175.766068,574.631104 
	C177.884155,565.864746 179.945343,557.333984 182.169144,548.130188 
	C189.711685,553.280945 196.893417,558.185303 204.543930,563.409790 
	C209.605820,556.086975 214.561783,548.917358 219.983597,541.073792 
	C225.287918,548.801880 230.228043,555.999390 235.342606,563.451050 
	C242.930710,558.251343 250.169281,553.291199 257.746185,548.099243 
	C259.920563,557.122681 261.976562,565.654846 264.138641,574.627136 
	C272.867798,572.633789 281.211060,570.728577 290.370667,568.636963 
	C289.194885,577.901428 288.099030,586.536194 286.968781,595.442078 
	C295.934418,596.744568 304.437164,597.979797 313.647339,599.317810 
	C309.215759,607.463623 305.039551,615.139954 300.635040,623.236023 
	C305.663239,626.055420 310.407654,628.715698 315.461121,631.573547 
z"/>
<path fill="#FC5000" opacity="1.000000" stroke="none" 
	d="
M431.897003,254.151306 
	C443.682343,259.650299 455.120087,265.006134 467.251465,270.686768 
	C465.254669,271.678741 463.823212,272.428986 462.360016,273.111115 
	C432.959503,286.817810 403.521881,300.446228 374.210480,314.340820 
	C371.661926,315.548950 369.168243,318.134125 367.951691,320.697815 
	C354.189148,349.699951 340.681915,378.823273 327.102509,407.912354 
	C326.330902,409.565277 325.526459,411.202911 324.354034,413.646423 
	C323.357910,411.717987 322.604401,410.377014 321.956116,408.986938 
	C308.176025,379.440552 294.470093,349.859161 280.522125,320.392273 
	C279.375244,317.969299 276.953491,315.569977 274.526886,314.420807 
	C245.210129,300.537109 215.780090,286.892578 186.383392,273.177582 
	C184.923416,272.496429 183.498642,271.739807 181.345459,270.661896 
	C197.877258,262.935364 213.648590,255.556458 229.426773,248.192245 
	C244.500931,241.156631 259.638885,234.253021 274.603241,226.991409 
	C277.025208,225.816132 279.442505,223.436676 280.590271,221.011902 
	C294.395844,191.845978 307.961365,162.566406 321.590820,133.317108 
	C322.351257,131.685181 323.122589,130.058350 324.280548,127.596405 
	C328.775269,137.192154 332.899567,145.970306 337.001282,154.758987 
	C347.271606,176.764923 357.442535,198.818253 367.915527,220.727249 
	C369.140045,223.288864 371.629059,225.852753 374.175537,227.078995 
	C393.209015,236.244598 412.404602,245.073654 431.897003,254.151306 
z"/>
<path fill="#D25100" opacity="1.000000" stroke="none" 
	d="
M1545.318115,256.711426 
	C1541.228638,256.293243 1537.593872,255.926437 1533.113403,255.474258 
	C1534.184204,252.954544 1535.062378,250.744843 1536.052124,248.586349 
	C1538.896240,242.384995 1541.565918,236.088821 1544.739258,230.058838 
	C1546.649658,226.428574 1545.765015,224.581085 1542.527832,222.444534 
	C1535.033081,217.498138 1527.805298,212.147293 1519.817139,206.499359 
	C1527.058838,201.448990 1533.950317,196.702072 1540.777954,191.865082 
	C1547.956543,186.779465 1546.973022,188.767212 1543.590332,181.033112 
	C1540.273193,173.448471 1536.694580,165.978165 1532.937378,157.820999 
	C1542.750000,156.873428 1551.977539,155.766724 1561.238281,155.194519 
	C1564.930298,154.966385 1565.912964,153.688248 1566.125610,150.143051 
	C1566.671265,141.048065 1567.713989,131.982910 1568.635376,122.074471 
	C1578.839966,126.818207 1588.415649,131.269608 1598.454956,135.936569 
	C1604.729980,127.043068 1610.929321,118.256775 1617.423584,109.052391 
	C1623.822632,118.145653 1629.929932,126.824417 1636.331299,135.921021 
	C1646.058105,131.416901 1655.646118,126.977028 1666.106323,122.133316 
	C1667.185303,133.222382 1668.205200,143.703674 1669.270874,154.655807 
	C1679.896240,155.688019 1690.419189,156.710281 1701.806519,157.816513 
	C1697.140869,168.083359 1692.775635,177.689194 1688.196777,187.765167 
	C1696.973511,193.903992 1705.671997,199.988113 1714.972412,206.493271 
	C1705.896973,212.932129 1697.175537,219.119766 1688.194702,225.491455 
	C1692.727173,235.434067 1697.119263,245.068954 1701.854126,255.455688 
	C1692.495483,256.337250 1683.814575,257.481781 1675.101196,257.842712 
	C1670.500732,258.033264 1668.832031,259.360596 1668.621460,264.104126 
	C1668.231567,272.885223 1667.065552,281.631866 1666.148926,291.160950 
	C1657.521484,287.138519 1649.341797,283.624298 1641.465698,279.526184 
	C1637.539429,277.483185 1635.476196,278.014679 1633.084473,281.725525 
	C1628.232666,289.254150 1622.871704,296.454712 1617.418945,304.220276 
	C1611.778687,296.193176 1606.286621,288.675354 1601.152710,280.920227 
	C1599.165771,277.918793 1597.451660,277.516327 1594.275024,279.111206 
	C1586.103638,283.213684 1577.748779,286.950989 1568.763428,291.164185 
	C1568.210693,286.007294 1567.665771,281.291718 1567.209839,276.567566 
	C1566.761841,271.925293 1566.203369,267.279785 1566.077148,262.625336 
	C1565.992310,259.495972 1564.909790,258.171661 1561.710449,258.032623 
	C1556.389526,257.801361 1551.084595,257.205231 1545.318115,256.711426 
z"/>
</svg>