<svg xmlns="http://www.w3.org/2000/svg" version="1.1" xmlns:xlink="http://www.w3.org/1999/xlink" xmlns:svgjs="http://svgjs.dev/svgjs" width="1440" height="560" preserveAspectRatio="none" viewBox="0 0 1440 560"><g mask="url(&quot;#SvgjsMask1027&quot;)" fill="none"><rect width="1440" height="560" x="0" y="0" fill="rgba(0, 0, 0, 1)"></rect><g transform="translate(0, 0)" stroke-linecap="round"><path d="M260 116.3 L260 443.7" stroke-width="15" stroke="rgba(240, 121, 0, 1)"></path><path d="M280 254.45 L280 305.55" stroke-width="15" stroke="rgba(255, 155, 47, 1)"></path><path d="M300 146.28 L300 413.72" stroke-width="15" stroke="rgba(211, 81, 0, 1)"></path><path d="M320 261.5 L320 298.5" stroke-width="15" stroke="rgba(211, 81, 0, 1)"></path><path d="M340 176.68 L340 383.32" stroke-width="15" stroke="rgba(240, 121, 0, 1)"></path><path d="M360 255.56 L360 304.44" stroke-width="15" stroke="rgba(240, 121, 0, 1)"></path><path d="M380 154.45 L380 405.55" stroke-width="15" stroke="rgba(240, 121, 0, 1)"></path><path d="M400 195.91 L400 364.09" stroke-width="15" stroke="rgba(240, 121, 0, 1)"></path><path d="M420 240.59 L420 319.41" stroke-width="15" stroke="rgba(255, 155, 47, 1)"></path><path d="M440 134.84 L440 425.16" stroke-width="15" stroke="rgba(211, 81, 0, 1)"></path><path d="M460 175.8 L460 384.2" stroke-width="15" stroke="rgba(211, 81, 0, 1)"></path><path d="M480 157.04 L480 402.96" stroke-width="15" stroke="rgba(255, 155, 47, 1)"></path><path d="M500 222.45 L500 337.55" stroke-width="15" stroke="rgba(240, 121, 0, 1)"></path><path d="M520 149.54 L520 410.46" stroke-width="15" stroke="rgba(240, 121, 0, 1)"></path><path d="M540 239.85 L540 320.15" stroke-width="15" stroke="rgba(240, 121, 0, 1)"></path><path d="M560 116.75 L560 443.25" stroke-width="15" stroke="rgba(211, 81, 0, 1)"></path><path d="M580 240.7 L580 319.3" stroke-width="15" stroke="rgba(211, 81, 0, 1)"></path><path d="M600 196.75 L600 363.25" stroke-width="15" stroke="rgba(211, 81, 0, 1)"></path><path d="M620 198.72 L620 361.28" stroke-width="15" stroke="rgba(255, 155, 47, 1)"></path><path d="M640 156.64 L640 403.36" stroke-width="15" stroke="rgba(240, 121, 0, 1)"></path><path d="M660 189.63 L660 370.37" stroke-width="15" stroke="rgba(255, 155, 47, 1)"></path><path d="M680 126.77 L680 433.23" stroke-width="15" stroke="rgba(211, 81, 0, 1)"></path><path d="M700 231.13 L700 328.87" stroke-width="15" stroke="rgba(211, 81, 0, 1)"></path><path d="M720 193 L720 367" stroke-width="15" stroke="rgba(211, 81, 0, 1)"></path><path d="M740 136.65 L740 423.36" stroke-width="15" stroke="rgba(255, 155, 47, 1)"></path><path d="M760 180.69 L760 379.31" stroke-width="15" stroke="rgba(240, 121, 0, 1)"></path><path d="M780 154.88 L780 405.12" stroke-width="15" stroke="rgba(211, 81, 0, 1)"></path><path d="M800 118.15 L800 441.85" stroke-width="15" stroke="rgba(255, 155, 47, 1)"></path><path d="M820 133.89 L820 426.11" stroke-width="15" stroke="rgba(211, 81, 0, 1)"></path><path d="M840 170.04 L840 389.96" stroke-width="15" stroke="rgba(255, 155, 47, 1)"></path><path d="M860 256.82 L860 303.18" stroke-width="15" stroke="rgba(255, 155, 47, 1)"></path><path d="M880 230.81 L880 329.19" stroke-width="15" stroke="rgba(211, 81, 0, 1)"></path><path d="M900 168.02 L900 391.98" stroke-width="15" stroke="rgba(240, 121, 0, 1)"></path><path d="M920 188.97 L920 371.03" stroke-width="15" stroke="rgba(240, 121, 0, 1)"></path><path d="M940 201.22 L940 358.77" stroke-width="15" stroke="rgba(240, 121, 0, 1)"></path><path d="M960 223.66 L960 336.34" stroke-width="15" stroke="rgba(211, 81, 0, 1)"></path><path d="M980 118.06 L980 441.94" stroke-width="15" stroke="rgba(211, 81, 0, 1)"></path><path d="M1000 227.35 L1000 332.65" stroke-width="15" stroke="rgba(240, 121, 0, 1)"></path><path d="M1020 172.59 L1020 387.4" stroke-width="15" stroke="rgba(211, 81, 0, 1)"></path><path d="M1040 167.09 L1040 392.9" stroke-width="15" stroke="rgba(240, 121, 0, 1)"></path><path d="M1060 201.14 L1060 358.86" stroke-width="15" stroke="rgba(240, 121, 0, 1)"></path><path d="M1080 221.56 L1080 338.44" stroke-width="15" stroke="rgba(211, 81, 0, 1)"></path><path d="M1100 200.18 L1100 359.82" stroke-width="15" stroke="rgba(255, 155, 47, 1)"></path><path d="M1120 147.03 L1120 412.97" stroke-width="15" stroke="rgba(211, 81, 0, 1)"></path><path d="M1140 175.82 L1140 384.18" stroke-width="15" stroke="rgba(240, 121, 0, 1)"></path><path d="M1160 116.85 L1160 443.15" stroke-width="15" stroke="rgba(211, 81, 0, 1)"></path><path d="M1180 244.63 L1180 315.37" stroke-width="15" stroke="rgba(255, 155, 47, 1)"></path></g></g><defs><mask id="SvgjsMask1027"><rect width="1440" height="560" fill="#ffffff"></rect></mask></defs></svg>