<svg xmlns="http://www.w3.org/2000/svg" version="1.1" xmlns:xlink="http://www.w3.org/1999/xlink" xmlns:svgjs="http://svgjs.dev/svgjs" width="1440" height="560" preserveAspectRatio="none" viewBox="0 0 1440 560"><g mask="url(&quot;#SvgjsMask1057&quot;)" fill="none"><rect width="1440" height="560" x="0" y="0" fill="rgba(0, 0, 0, 1)"></rect><path d="M 0,72 C 57.6,63.6 172.8,31.6 288,30 C 403.2,28.4 460.8,67.6 576,64 C 691.2,60.4 748.8,2.6 864,12 C 979.2,21.4 1036.8,108.6 1152,111 C 1267.2,113.4 1382.4,41.4 1440,24L1440 560L0 560z" fill="rgba(0, 0, 0, 1)"></path><path d="M 0,125 C 144,142 432,202.2 720,210 C 1008,217.8 1296,173.2 1440,164L1440 560L0 560z" fill="rgba(0, 0, 0, 1)"></path><path d="M 0,303 C 72,292 216,245.2 360,248 C 504,250.8 576,314.2 720,317 C 864,319.8 936,268.8 1080,262 C 1224,255.2 1368,278.8 1440,283L1440 560L0 560z" fill="rgba(211, 81, 0, 1)"></path><path d="M 0,376 C 96,386 288,424 480,426 C 672,428 768,381.6 960,386 C 1152,390.4 1344,435.6 1440,448L1440 560L0 560z" fill="rgba(240, 121, 0, 1)"></path><path d="M 0,477 C 96,492 288,552.4 480,552 C 672,551.6 768,483 960,475 C 1152,467 1344,504.6 1440,512L1440 560L0 560z" fill="rgba(255, 155, 47, 1)"></path></g><defs><mask id="SvgjsMask1057"><rect width="1440" height="560" fill="#ffffff"></rect></mask></defs></svg>