<svg xmlns="http://www.w3.org/2000/svg" version="1.1" xmlns:xlink="http://www.w3.org/1999/xlink" xmlns:svgjs="http://svgjs.dev/svgjs" width="1440" height="560" preserveAspectRatio="none" viewBox="0 0 1440 560"><g mask="url(&quot;#SvgjsMask1090&quot;)" fill="none"><rect width="1440" height="560" x="0" y="0" fill="rgba(0, 0, 0, 1)"></rect><path d="M -346.9932921263491,290 C -250.99,270 -58.99,167.8 133.0067078736509,190 C 325.01,212.2 421.01,390.8 613.0067078736508,401 C 805.01,411.2 901.01,261.6 1093.0067078736508,241 C 1285.01,220.4 1503.61,319.4 1573.0067078736508,298 C 1642.41,276.6 1466.6,166.8 1440,134" stroke="rgba(240, 121, 0, 1)" stroke-width="2"></path><path d="M -434.1103761361445,110 C -338.11,182.6 -146.11,455.2 45.8896238638555,473 C 237.89,490.8 333.89,204.8 525.8896238638555,199 C 717.89,193.2 813.89,435.2 1005.8896238638555,444 C 1197.89,452.8 1399.07,251.6 1485.8896238638556,243 C 1572.71,234.4 1449.18,369.4 1440,401" stroke="rgba(211, 81, 0, 1)" stroke-width="2"></path><path d="M -806.6237603087345,361 C -710.62,321.2 -518.62,140.2 -326.6237603087345,162 C -134.62,183.8 -38.62,477 153.37623969126548,470 C 345.38,463 441.38,149.4 633.3762396912655,127 C 825.38,104.6 952.05,328.6 1113.3762396912655,358 C 1274.7,387.4 1374.68,290.8 1440,274" stroke="rgba(240, 121, 0, 1)" stroke-width="2"></path><path d="M -879.9989628896034,155 C -784,205.2 -592,391.8 -399.9989628896034,406 C -208,420.2 -112,214 80.00103711039662,226 C 272,238 368,481.8 560.0010371103966,466 C 752,450.2 864,158.8 1040.0010371103967,147 C 1216,135.2 1360,355 1440,407" stroke="rgba(211, 81, 0, 1)" stroke-width="2"></path></g><defs><mask id="SvgjsMask1090"><rect width="1440" height="560" fill="#ffffff"></rect></mask></defs></svg>